<?xml version="1.0" encoding="utf-8"?>
<!-- Generator: Adobe Illustrator 21.1.0, SVG Export Plug-In . SVG Version: 6.00 Build 0)  -->
<svg version="1.1" id="레이어_1" xmlns="http://www.w3.org/2000/svg" xmlns:xlink="http://www.w3.org/1999/xlink" x="0px"
	 y="0px" viewBox="0 0 595.3 565" style="enable-background:new 0 0 595.3 565;" xml:space="preserve">
<style type="text/css">
	.st0{fill:#FFFFFF;}
	.st1{fill:#040000;}
	.st2{fill:#C42228;}
	.st3{fill:#084C91;}
</style>
<path class="st0" d="M545,301.3c-15.9-32.7-25-64.5-25-87.3c0-1.3,0-1.4,0.1-2.7l0.1-1.3l0-0.4c1.3-27.8,10.1-41.5,12.2-44.3
	c7.3-7.4,11.1-17,11-27.2c-0.2-10-4.3-19.8-11.6-27.5l-64.4-68.2c-7.6-8.1-18.3-12.7-29.3-12.7c-8,0-15.8,2.4-22.5,7
	c-1.5,0.9-23.3,14.6-44.4,14.6c-11,0-18.1-3.5-27.9-8.3C332.3,37.6,318.9,31,301.5,31h-7.6c-17.1,0-30.5,6.4-41.2,11.5
	c-9.9,4.7-17,8.1-28.3,8.1c-21.4,0-43.5-13.7-44.6-14.4c-6.6-4.4-14.4-6.8-22.3-6.8c-11.1,0-21.9,4.7-29.5,12.8l-64.4,69
	c-7.9,8.4-11.8,18.2-11.4,28.4c0.4,10.4,4.3,19.6,11.2,26.5c2.1,2.8,10.6,16.2,11.9,43.6l0,0.3l0.1,1.3c0.1,1.3,0.1,1.4,0.1,2.7
	c0,22.7-9.1,54.5-25,87.2c-15.5,32-25.6,82.6-7.2,128.6c14,34.9,41.6,60.9,79.9,75.2c41.5,15.5,75.6,18.7,103.1,21.3
	c18.6,1.8,34.7,3.3,40.6,8.2c0.7,0.6,1.5,1.2,2.3,1.8c3.8,2.8,14.3,9.1,28.6,9.1c10.6,0,20.6-3.4,29.2-9.8c0.5-0.4,1.1-0.8,1.6-1.3
	c6-5,22.2-6.6,40.9-8.4c27.3-2.7,61.4-6.1,102.7-21.5c38.3-14.3,66-40.3,79.9-75.1C570.5,383.7,560.5,333.3,545,301.3z"/>
<path class="st1" d="M536,305.7c-16.5-34-26-67.4-26-91.7c0-1.6,0-1.9,0.1-3.3l0.1-1.3c0-0.1,0-0.2,0-0.2
	c1.6-32.4,12.7-48,14.6-50.4c11.8-11.5,11-29.3-0.3-41.3L460,49.2c-6-6.3-14-9.6-22.1-9.6c-5.9,0-11.8,1.7-17,5.3
	c-1.4,0.9-25.3,16.3-50,16.3c-13.4,0-22.1-4.3-32.3-9.3C328.3,46.8,316.6,41,301.5,41h-7.6c-14.9,0-26.6,5.6-36.9,10.5
	c-10.2,4.9-19.1,9.1-32.6,9.1c-25,0-49.8-15.9-50.1-16c-5.1-3.5-11-5.1-16.9-5.1c-8.2,0-16.3,3.3-22.2,9.6l-64.4,69
	c-5.5,5.9-9.1,13.1-8.8,21.2c0.3,7.9,3.1,14.8,8.8,20.2c2,2.5,12.8,17.7,14.4,49.7c0,0.1,0,0.2,0,0.2l0.1,1.3
	c0.1,1.4,0.1,1.7,0.1,3.3c0,24.2-9.5,57.6-26,91.6c-14.6,30.1-24.1,77.6-6.9,120.6c12.9,32.2,38.5,56.3,74.1,69.5
	c40.3,15,73.7,18.2,100.5,20.7c22,2.1,37.8,3.6,46.1,10.5c0.6,0.5,1.1,0.9,1.7,1.3c3,2.2,11.3,7.3,22.8,7.3c8.4,0,16.4-2.7,23.2-7.8
	c0.4-0.3,0.8-0.6,1.2-1c8.3-6.9,24.3-8.5,46.4-10.7c26.8-2.6,60.1-5.9,100.2-20.9c35.6-13.3,61.3-37.3,74.1-69.5
	C560,383,550.5,335.7,536,305.7z M491.6,208.4c0,27.2,10.6,68.2,28.5,105.1c12.9,26.6,21.4,68.3,6.4,105.7
	c-11,27.4-33.1,48-63.9,59.5c-38,14.2-70,17.3-95.8,19.9c-25.2,2.5-43.4,4.3-55.9,14.7c-0.2,0.1-0.3,0.3-0.5,0.4
	c-3.7,2.8-8.1,4.3-12.6,4.3c-6.5,0-11.2-3-12.5-3.9c-0.2-0.2-0.5-0.4-0.7-0.6c-12.5-10.4-30.6-12.1-55.7-14.5
	c-25.8-2.4-57.9-5.5-96-19.7c-30.8-11.5-52.9-32.1-63.9-59.5c-15.1-37.6-6.7-79.6,6.3-106.3c17.9-36.9,27-77.9,27-105c0-0.1,0,0,0,0
	c-2-41.9-18.2-60.8-18.4-61c-4.7-4.8-4.6-12.4,0-17.3l64.4-69c4.2-4.5,11.1-5.3,16.3-1.9c0.3,0.2,29,19,59.9,19
	c17.6,0,29.1-5.5,40.2-10.8c9.5-4.5,18.4-8.8,29.2-8.8h7.6c11,0,20.3,4.6,29.4,9.1c11.1,5.5,22.6,11.1,40.1,11.1
	c31.1,0,59.5-19.1,59.8-19.3c5.1-3.5,12-2.7,16.2,1.8l64.3,68.2c4.6,4.9,4.4,12.5-0.2,17.3C511,147,493.6,166.3,491.6,208.4"/>
<path class="st2" d="M346.8,127.3c-2.6,0-4.8,0.2-6.5,0.5v40c0.9,0.2,2.7,0.3,5.2,0.3c6.4,0.1,11.4-1.7,15-5.4c3.6-3.6,5.4-9,5.4-16
	c0-6.3-1.7-11.1-5-14.4C357.6,128.9,352.9,127.3,346.8,127.3z"/>
<path class="st2" d="M294,127c-2.8,0-4.8,0.1-6.1,0.4V145h5.7c3.4,0,6.1-0.8,8-2.5c1.9-1.7,2.9-3.9,2.9-6.6
	C304.5,130,301,127,294,127z"/>
<path class="st2" d="M435.7,86.1c-12.9,7-37.6,18.1-64.7,18.1c-23.4,0-38.8-7.6-51.3-13.7c-7.4-3.6-13.2-6.5-18.2-6.5h-7.6
	c-5.1,0-11,2.8-18.4,6.3c-12.4,5.9-27.8,13.3-51.1,13.3c-27.1,0-51.7-10.9-64.6-17.8l-50.5,54.1c6.2,10.1,14.7,28.3,17.9,55.3h341
	c3.1-27.2,11.6-45.5,17.9-55.7L435.7,86.1z M213.7,176.2h-11.3L188.5,152c-4.1-7.2-7.4-13.7-9.9-19.7l-0.3,0.1
	c0.4,6.8,0.6,15,0.6,24.5v19.3h-10.1v-57h12.4l13.7,23.6c3.4,6,6.6,12.4,9.4,19.1l0.2-0.1c-0.6-6.6-0.9-14.6-0.9-23.9v-18.8h10.1
	V176.2z M263.9,176.2h-34.3v-57h33v9.1h-22.1v14h20.9v9h-20.9v16h23.4V176.2z M306.3,176.2c-1-1.9-2.3-6.3-3.8-13.5
	c-0.8-3.7-1.9-6.2-3.4-7.6c-1.5-1.4-3.6-2.1-6.4-2.1h-4.7v23.2h-10.8v-56.3c4.5-0.8,9.7-1.2,15.8-1.2c8.1,0,13.9,1.5,17.5,4.6
	c3.3,2.7,5,6.6,5,11.6c0,3.4-1,6.4-3.1,9.1c-1.9,2.4-4.2,4.1-7,5.1v0.3c3.7,1.5,6.3,5.1,7.8,11c1.5,6,2.3,9.3,2.5,9.7
	c0.8,3.2,1.5,5.2,2,6.2H306.3z M368.5,169.2c-5.6,5.1-14.1,7.6-25.4,7.6c-5.3,0-9.9-0.3-13.8-0.8v-56.1c4.9-0.8,10.3-1.2,16.3-1.2
	c10,0,17.6,2.1,22.8,6.2c6,4.9,9,12,9,21.4C377.4,156.3,374.4,163.9,368.5,169.2z M419.5,172c-3.9,3.4-9.3,5.1-16.3,5.1
	c-6.3,0-11.3-1.2-15.2-3.5l2.3-9.1c4.2,2.4,8.7,3.6,13.6,3.6c3.2,0,5.6-0.7,7.3-2c1.7-1.3,2.6-3.1,2.6-5.4c0-2.1-0.7-3.8-2.2-5.2
	c-1.5-1.4-4-2.7-7.6-4.1c-10.1-3.7-15.1-9.3-15.1-16.6c0-4.8,1.8-8.7,5.5-11.8c3.7-3.1,8.6-4.7,14.8-4.7c5.3,0,9.8,0.9,13.5,2.8
	l-2.5,8.8c-3.4-1.7-7.2-2.6-11.3-2.6c-2.9,0-5.2,0.7-6.9,2c-1.4,1.2-2.1,2.7-2.1,4.5c0,2,0.8,3.6,2.5,5c1.4,1.1,4.1,2.5,8,4.1
	c9.6,3.8,14.5,9.4,14.5,16.9C425,164.7,423.1,168.8,419.5,172z"/>
<path class="st3" d="M377.8,344.5c13.6,0,23.4-5.1,29.5-15.2c1.4-2.4,2.1-6.3,2.1-11.6c0-13.2-2.3-24.1-7-32.6
	c-5.7-9.9-14.1-14.9-25.3-14.9c-9.1,0-16.4,3.8-21.9,11.4c-5.5,7.6-8.2,16.9-8.2,27.9c0,10.2,2.7,18.5,8.2,25.1
	C360.7,341.2,368.3,344.5,377.8,344.5z"/>
<path class="st3" d="M92.5,410.3c8.4,21,25,36.2,49.2,45.3c35,13,64,15.8,89.6,18.2c25.9,2.5,48.4,4.6,66.4,17.8
	c18-13.3,40.7-15.6,66.7-18.1c25.5-2.5,54.5-5.4,89.4-18.4c24.3-9.1,40.9-24.3,49.3-45.2c11.9-29.7,4.9-63.6-5.7-85.3
	c-10.8-22.1-28.4-64.2-30.2-104.1H128.3c-1.8,39.9-19.4,81.9-30.2,104.1C88,345.3,80.4,380.2,92.5,410.3z M328,261.8
	c13.5-13.9,30.5-20.9,51-20.9c22.5,0,40.1,8.1,52.7,24.4c12,15.2,18,35.2,18,60c0,34.5-8.5,62.1-25.6,82.8
	c-18.1,21.7-43.8,33.8-77,36.2c-9.1,0.8-16.3,1-21.6,0.6v-31.1c4.5,0.4,11.2,0.2,20.1-0.6c15.2-1.2,28.2-6,39-14.3
	c13-10.1,21.3-24.3,25-42.3h-0.9c-9.9,11-23.7,16.4-41.1,16.4c-17.1,0-31.3-5.7-42.6-17.1c-11.4-11.4-17.1-26.1-17.1-44.2
	C307.8,292.4,314.5,275.7,328,261.8z M166,261.8c13.5-13.9,30.5-20.9,51-20.9c22.5,0,40.1,8.1,52.7,24.4c12,15.2,18,35.2,18,60
	c0,34.5-8.5,62.1-25.6,82.8c-18.1,21.7-43.8,33.8-77,36.2c-9.1,0.8-16.3,1-21.6,0.6v-31.1c4.5,0.4,11.2,0.2,20.1-0.6
	c15.2-1.2,28.2-6,39-14.3c13-10.1,21.3-24.3,25-42.3h-0.9c-9.9,11-23.7,16.4-41.1,16.4c-17.1,0-31.3-5.7-42.6-17.1
	c-11.4-11.4-17.1-26.1-17.1-44.2C145.7,292.4,152.5,275.7,166,261.8z"/>
<path class="st3" d="M215.8,344.5c13.6,0,23.4-5.1,29.5-15.2c1.4-2.4,2.1-6.3,2.1-11.6c0-13.2-2.3-24.1-7-32.6
	c-5.7-9.9-14.1-14.9-25.3-14.9c-9.1,0-16.4,3.8-21.9,11.4c-5.5,7.6-8.2,16.9-8.2,27.9c0,10.2,2.7,18.5,8.2,25.1
	C198.7,341.2,206.2,344.5,215.8,344.5z"/>
</svg>
