<svg xmlns="http://www.w3.org/2000/svg" width="390" height="76" viewBox="0 0 390 76">
  <g fill="#FFFFFE" fill-rule="evenodd">
    <path d="M30.947 12.066C26.363 12.066 25.039 14.103 25.039 18.586L25.039 26.022 37.263 26.022 36.041 38.042 25.039 38.042 25.039 74.511 10.37 74.511 10.37 38.042.489 38.042.489 26.022 10.37 26.022 10.37 18.789C10.37 6.667 15.26.249 28.91.249 31.865.249 35.328.453 37.467.759L37.467 12.066 30.947 12.066M52.948 51.998C52.948 59.231 55.597 64.019 62.422 64.019 68.432 64.019 71.488 59.638 71.488 52.711L71.488 47.822C71.488 40.895 68.432 36.514 62.422 36.514 55.597 36.514 52.948 41.302 52.948 48.535L52.948 51.998zM38.28 48.739C38.28 35.19 44.697 25.003 58.144 25.003 65.478 25.003 69.96 28.772 72.099 33.458L72.099 26.022 86.157 26.022 86.157 74.511 72.099 74.511 72.099 67.177C70.062 71.863 65.478 75.53 58.144 75.53 44.697 75.53 38.28 65.343 38.28 51.795L38.28 48.739 38.28 48.739zM116.713 25.003C122.418 25.003 127.817 26.226 130.771 28.263L127.511 38.654C125.27 37.533 121.603 36.412 117.732 36.412 109.786 36.412 106.322 40.996 106.322 48.84L106.322 51.693C106.322 59.536 109.786 64.12 117.732 64.12 121.603 64.12 125.27 63 127.511 61.879L130.771 72.27C127.817 74.307 122.418 75.53 116.713 75.53 99.497 75.53 91.654 66.26 91.654 51.387L91.654 49.146C91.654 34.273 99.497 25.003 116.713 25.003M147.373 45.784L165.098 45.784 165.098 44.562C165.098 39.265 162.959 35.088 156.541 35.088 149.92 35.088 147.373 39.265 147.373 45.784zM132.704 52.1L132.704 47.822C132.704 34.07 140.548 25.003 156.541 25.003 171.617 25.003 178.238 34.171 178.238 47.618L178.238 55.36 147.373 55.36C147.678 61.982 150.632 64.936 158.782 64.936 164.283 64.936 170.089 63.815 174.368 61.982L177.016 72.066C173.145 74.104 165.199 75.631 158.171 75.631 139.631 75.631 132.704 66.362 132.704 52.1L132.704 52.1zM217.964 48.433C217.964 41.608 215.315 36.514 208.286 36.514 202.276 36.514 199.016 40.793 199.016 47.72L199.016 52.813C199.016 59.74 202.276 64.019 208.286 64.019 215.315 64.019 217.964 58.925 217.964 52.1L217.964 48.433zM232.633 51.795C232.633 65.343 226.113 75.53 212.667 75.53 205.332 75.53 200.239 71.863 198.202 67.177L198.202 74.511 184.347 74.511 184.347 1.676 199.016.351 199.016 32.745C201.155 28.467 205.841 25.003 212.667 25.003 226.113 25.003 232.633 35.19 232.633 48.739L232.633 51.795 232.633 51.795zM271.135 48.026C271.135 41.608 268.486 36.514 261.662 36.514 254.837 36.514 252.187 41.608 252.187 48.026L252.187 52.508C252.187 58.925 254.837 64.019 261.662 64.019 268.486 64.019 271.135 58.925 271.135 52.508L271.135 48.026zM237.519 51.489L237.519 49.044C237.519 35.088 245.465 25.003 261.662 25.003 277.858 25.003 285.804 35.088 285.804 49.044L285.804 51.489C285.804 65.445 277.858 75.53 261.662 75.53 245.465 75.53 237.519 65.445 237.519 51.489L237.519 51.489zM324.306 48.026C324.306 41.608 321.658 36.514 314.833 36.514 308.007 36.514 305.359 41.608 305.359 48.026L305.359 52.508C305.359 58.925 308.007 64.019 314.833 64.019 321.658 64.019 324.306 58.925 324.306 52.508L324.306 48.026zM290.689 51.489L290.689 49.044C290.689 35.088 298.635 25.003 314.833 25.003 331.029 25.003 338.975 35.088 338.975 49.044L338.975 51.489C338.975 65.445 331.029 75.53 314.833 75.53 298.635 75.53 290.689 65.445 290.689 51.489L290.689 51.489z"/>
    <polyline points="359.14 49.146 373.606 26.022 389.192 26.022 374.013 49.961 389.802 74.511 374.217 74.511 359.14 50.776 359.14 74.511 344.471 74.511 344.471 1.676 359.14 .351 359.14 49.146"/>
  </g>
</svg>
