<svg xmlns="http://www.w3.org/2000/svg" width="217" height="38" viewBox="0 0 217 38">
  <g fill="none" fill-rule="evenodd" transform="translate(0 -1)">
    <g fill="#FFF" transform="matrix(1 0 0 -1 64.437 39.048)">
      <polygon fill-rule="nonzero" points="0 5.079 .509 5.079 .509 3.096 2.488 5.079 3.101 5.079 1.012 3.018 3.272 .701 2.567 .701 .509 2.907 .509 .701 0 .701" transform="translate(.286 .611)"/>
      <path fill-rule="nonzero" d="M1.26346431,2.53968248 C1.26346431,2.2971428 1.29378745,2.06222217 1.35190681,1.83746027 C1.41002617,1.61269837 1.50352252,1.40952377 1.62607856,1.23555552 C1.75116153,1.05904759 1.90909457,0.919365056 2.10114114,0.812698392 C2.29445118,0.706031728 2.52313822,0.652698396 2.79225612,0.652698396 C3.05884709,0.652698396 3.29006105,0.706031728 3.48337109,0.812698392 C3.6741542,0.919365056 3.8333507,1.05904759 3.95590674,1.23555552 C4.08098971,1.40952377 4.17195914,1.61269837 4.23134196,1.83746027 C4.29072478,2.06222217 4.318521,2.2971428 4.318521,2.53968248 C4.318521,2.78730152 4.28819785,3.02476183 4.22502464,3.25206341 C4.16185142,3.47936499 4.06582814,3.67999991 3.93948171,3.85650784 C3.81187181,4.03174593 3.65267531,4.17269831 3.46062873,4.27555545 C3.27110909,4.37714275 3.04621244,4.42666656 2.79225612,4.42666656 C2.53577286,4.42666656 2.31340314,4.37714275 2.12262003,4.27555545 C1.93183692,4.17269831 1.77264042,4.03174593 1.64503053,3.85650784 C1.51615717,3.67999991 1.42139734,3.47936499 1.35948759,3.25206341 C1.29631438,3.02476183 1.26346431,2.78730152 1.26346431,2.53968248 M0.717647726,2.53968248 C0.717647726,2.86730152 0.763132441,3.16698405 0.859155728,3.44380944 C0.951388623,3.71936499 1.08531584,3.95809514 1.26346431,4.15873005 C1.4441397,4.35809513 1.66145556,4.51682528 1.91541189,4.63238084 C2.17189514,4.74539671 2.4637554,4.8038094 2.79225612,4.8038094 C3.12075684,4.8038094 3.41261709,4.74539671 3.66657342,4.63238084 C3.92432013,4.51682528 4.14037253,4.35809513 4.318521,4.15873005 C4.49919639,3.95809514 4.63312361,3.71936499 4.72661997,3.44380944 C4.82011633,3.16698405 4.86560104,2.86730152 4.86560104,2.53968248 C4.86560104,2.20444439 4.82011633,1.89714281 4.72661997,1.62031742 C4.63312361,1.34349203 4.49919639,1.10349204 4.32231139,0.90285712 C4.14542639,0.702222205 3.92811053,0.547301574 3.67036381,0.435555545 C3.41261709,0.323809516 3.12075684,0.269206342 2.79225612,0.269206342 C2.4637554,0.269206342 2.17063168,0.323809516 1.91414842,0.435555545 C1.65640171,0.547301574 1.43908584,0.702222205 1.26220084,0.90285712 C1.08405237,1.10349204 0.951388623,1.34349203 0.859155728,1.62031742 C0.763132441,1.89714281 0.717647726,2.20444439 0.717647726,2.53968248" transform="translate(3.236 .961)"/>
      <path fill-rule="nonzero" d="M1.26346431,2.53968248 C1.58817463,2.53968248 1.84086749,2.61206343 2.02154289,2.75936501 C2.20095482,2.90412691 2.29318772,3.10222214 2.29318772,3.35492055 C2.29318772,3.59238086 2.212326,3.78031737 2.05060257,3.91873006 C1.8901426,4.05587291 1.65387478,4.12698402 1.33674524,4.12698402 L0.660791832,4.12698402 L0.660791832,2.53968248 L1.26346431,2.53968248 Z M0.156669574,4.50920624 L1.18007566,4.50920624 C1.38981074,4.50920624 1.59449195,4.49396814 1.79285585,4.46984116 C1.99121975,4.44698402 2.16810475,4.39365068 2.32351086,4.31365069 C2.47639004,4.23365069 2.60020954,4.11936498 2.6937059,3.96952371 C2.78593879,3.8184126 2.83395044,3.61904753 2.83395044,3.36761896 C2.83395044,3.24063484 2.81247155,3.1225396 2.76698683,3.00952373 C2.72150212,2.89650786 2.66211929,2.79365072 2.58504797,2.69714279 C2.50671318,2.60444438 2.41574375,2.52571422 2.30708582,2.463492 C2.19969136,2.40126978 2.08345264,2.35428566 1.95710621,2.32634915 C2.05060257,2.27809518 2.12514696,2.21333328 2.17947593,2.12444439 C2.23506836,2.03682535 2.29318772,1.93015868 2.35888786,1.8044444 L3.13212801,0.129523806 L2.55851522,0.129523806 L1.90909457,1.65333329 C1.85097521,1.76634916 1.79538278,1.85904757 1.73852689,1.927619 C1.68167099,1.99619043 1.61976124,2.04825392 1.55658803,2.08126979 C1.49088788,2.11301582 1.42013388,2.13587296 1.34558949,2.14730153 C1.26978163,2.15746026 1.19144684,2.16126979 1.10553127,2.16126979 L0.660791832,2.16126979 L0.660791832,0.129523806 L0.156669574,0.129523806 L0.156669574,4.50920624 Z" transform="translate(8.938 1.182)"/>
      <polygon fill-rule="nonzero" points="0 5.079 2.353 5.079 2.353 4.697 .503 4.697 .503 3.164 2.188 3.164 2.188 2.783 .503 2.783 .503 1.082 2.353 1.082 2.353 .701 0 .701" transform="translate(12.928 .611)"/>
      <path fill-rule="nonzero" d="M2.52692861,5.07936495 L1.5325822,2.52952375 L3.51874809,2.52952375 L2.52692861,5.07936495 Z M2.247703,5.41714272 L2.8529024,5.41714272 L4.64575825,1.03746029 L4.09867821,1.03746029 L3.65014838,2.19301582 L1.40749924,2.19301582 L0.960232873,1.03746029 L0.43715865,1.03746029 L2.247703,5.41714272 Z" transform="translate(15.522 .274)"/>
      <path fill-rule="nonzero" d="M1.26346431,2.53968248 C1.26346431,2.2971428 1.29378745,2.06222217 1.35190681,1.83746027 C1.41128963,1.61269837 1.50225906,1.40952377 1.62607856,1.23555552 C1.75116153,1.05904759 1.90909457,0.919365056 2.10114114,0.812698392 C2.29445118,0.706031728 2.52440168,0.652698396 2.79225612,0.652698396 C3.05884709,0.652698396 3.28879759,0.706031728 3.48337109,0.812698392 C3.6741542,0.919365056 3.8333507,1.05904759 3.95590674,1.23555552 C4.08098971,1.40952377 4.17195914,1.61269837 4.23260543,1.83746027 C4.28946132,2.06222217 4.318521,2.2971428 4.318521,2.53968248 C4.318521,2.78730152 4.28819785,3.02476183 4.22502464,3.25206341 C4.16185142,3.47936499 4.06582814,3.67999991 3.93948171,3.85650784 C3.81187181,4.03174593 3.65267531,4.17269831 3.46062873,4.27555545 C3.27110909,4.37714275 3.04747591,4.42666656 2.79225612,4.42666656 C2.53577286,4.42666656 2.31340314,4.37714275 2.12262003,4.27555545 C1.93183692,4.17269831 1.77264042,4.03174593 1.64503053,3.85650784 C1.51742063,3.67999991 1.42139734,3.47936499 1.35948759,3.25206341 C1.29631438,3.02476183 1.26346431,2.78730152 1.26346431,2.53968248 M0.716384262,2.53968248 C0.716384262,2.86730152 0.761868977,3.16698405 0.857892264,3.44380944 C0.951388623,3.71936499 1.08531584,3.95809514 1.26346431,4.15873005 C1.4441397,4.35809513 1.6601921,4.51682528 1.91541189,4.63238084 C2.17189514,4.74539671 2.4637554,4.8038094 2.79225612,4.8038094 C3.12075684,4.8038094 3.41261709,4.74539671 3.66657342,4.63238084 C3.92305667,4.51682528 4.14037253,4.35809513 4.318521,4.15873005 C4.49919639,3.95809514 4.63312361,3.71936499 4.72661997,3.44380944 C4.81885286,3.16698405 4.86686451,2.86730152 4.86686451,2.53968248 C4.86686451,2.20444439 4.81885286,1.89714281 4.72661997,1.62031742 C4.63312361,1.34349203 4.49919639,1.10349204 4.32231139,0.90285712 C4.14542639,0.702222205 3.92811053,0.547301574 3.67036381,0.435555545 C3.41261709,0.323809516 3.12075684,0.269206342 2.79225612,0.269206342 C2.4637554,0.269206342 2.17063168,0.323809516 1.91414842,0.435555545 C1.65640171,0.547301574 1.43908584,0.702222205 1.26220084,0.90285712 C1.08405237,1.10349204 0.951388623,1.34349203 0.857892264,1.62031742 C0.761868977,1.89714281 0.716384262,2.20444439 0.716384262,2.53968248" transform="translate(21.647 .961)"/>
      <path fill-rule="nonzero" d="M1.26346431,2.53968248 C1.36959531,2.53968248 1.47698977,2.55746025 1.5894381,2.58793644 C1.70188642,2.61841263 1.80422703,2.67174596 1.89519646,2.74285707 C1.98995628,2.81396818 2.0670276,2.90666659 2.12893736,3.02095231 C2.18705671,3.13650786 2.21864332,3.27746024 2.21864332,3.44380944 C2.21864332,3.6088888 2.18452979,3.74603165 2.11630271,3.85904752 C2.04554871,3.97079355 1.95963314,4.06222212 1.8547656,4.13079355 C1.7486346,4.20063482 1.63365935,4.25142847 1.51236677,4.28190465 C1.39233767,4.31238084 1.27862588,4.33015862 1.17249488,4.33015862 L0.571085866,4.33015862 L0.571085866,2.53968248 L1.26346431,2.53968248 Z M0.0593828224,4.71238083 L1.1611237,4.71238083 C1.37970302,4.71238083 1.58691117,4.69079353 1.78148467,4.65015861 C1.97605817,4.60698401 2.14536239,4.5358729 2.29192425,4.43809513 C2.43848611,4.34031735 2.55346136,4.2095237 2.63937694,4.04698403 C2.72276558,3.88444435 2.76572337,3.67999991 2.76572337,3.43873007 C2.76572337,3.2025396 2.72276558,3.00571421 2.63937694,2.84190469 C2.55346136,2.67936501 2.44101304,2.54730152 2.3007685,2.44825391 C2.16052396,2.34793645 2.000064,2.27428566 1.81686167,2.22730153 C1.63365935,2.18285709 1.44793009,2.1587301 1.25841045,2.1587301 L0.571085866,2.1587301 L0.571085866,0.333968246 L0.0593828224,0.333968246 L0.0593828224,4.71238083 Z" transform="translate(27.446 .978)"/>
      <polygon fill-rule="nonzero" points="0 5.079 2.354 5.079 2.354 4.697 .504 4.697 .504 3.164 2.19 3.164 2.19 2.783 .504 2.783 .504 1.082 2.354 1.082 2.354 .701 0 .701" transform="translate(31.155 .611)"/>
      <polygon fill-rule="nonzero" points="0 5.079 .772 5.079 2.835 1.398 2.835 5.079 3.348 5.079 3.348 .701 2.627 .701 .51 4.465 .51 .701 0 .701" transform="translate(34.617 .611)"/>
      <path fill-rule="nonzero" d="M2.52692861,5.07936495 C2.45238422,5.1085713 2.38668407,5.13396813 2.32477432,5.15555543 C2.2653915,5.17587289 2.20348175,5.19238082 2.14536239,5.20888876 C2.08724303,5.22285701 2.02406982,5.23428558 1.9608966,5.24063479 C1.89645992,5.24571415 1.82065207,5.24825384 1.73473649,5.24825384 C1.63744974,5.24825384 1.53889952,5.23682527 1.44034931,5.21650781 C1.33927216,5.19619035 1.2495662,5.15809511 1.16996795,5.10603162 C1.0865793,5.0501586 1.02340609,4.97650781 0.970340587,4.88507924 C0.921065479,4.79365067 0.895796193,4.67809512 0.895796193,4.53968243 C0.895796193,4.43174592 0.918538551,4.33650783 0.962759801,4.25523799 C1.00698105,4.17142847 1.06510041,4.10031736 1.13838134,4.03174593 C1.21166227,3.96571419 1.29757784,3.90603165 1.39486459,3.85269832 C1.49088788,3.80063483 1.59322849,3.74730149 1.69935949,3.69396816 C1.82065207,3.62920626 1.9469985,3.56063483 2.07966225,3.48698404 C2.21106254,3.41206341 2.33109164,3.319365 2.43848611,3.21269833 C2.54588058,3.10730151 2.63305961,2.98412691 2.70381362,2.84571421 C2.77077722,2.70857136 2.80615422,2.54476184 2.80615422,2.35682534 C2.80615422,2.13206344 2.76572337,1.93777773 2.68359819,1.77650789 C2.60273647,1.61523805 2.49155161,1.48571425 2.34878015,1.38539679 C2.20727214,1.28507933 2.04302178,1.2101587 1.85350214,1.16190473 C1.66524596,1.11365077 1.46309167,1.08952378 1.24830273,1.08952378 C1.0903697,1.08952378 0.943807837,1.10730156 0.811144085,1.13904759 C0.677216868,1.17206346 0.544553116,1.21396822 0.415679757,1.25841267 L0.451056757,1.66095234 C0.544553116,1.62793647 0.669636082,1.58857139 0.828832585,1.54158726 C0.986765623,1.49587298 1.15101598,1.47301584 1.32158366,1.47301584 C1.41887042,1.47301584 1.52121102,1.48825393 1.63113242,1.51873012 C1.74105381,1.55047615 1.84339442,1.59999996 1.93436385,1.6660317 C2.02912368,1.73333329 2.106195,1.82222218 2.16810475,1.93142852 C2.22748757,2.03809519 2.25781072,2.16888883 2.25781072,2.31999994 C2.25781072,2.45460311 2.23380489,2.56888882 2.18452979,2.66793644 C2.13651814,2.76698406 2.070818,2.84952374 1.98869282,2.92190469 C1.90530417,2.9930158 1.81054435,3.05523802 1.70567681,3.11365072 C1.59954581,3.16825389 1.49088788,3.2241269 1.38222995,3.27873008 C1.25967391,3.33714277 1.13838134,3.40317452 1.01835223,3.47428563 C0.895796193,3.54539674 0.784611334,3.62666658 0.686061118,3.72190467 C0.586247438,3.81460308 0.504122258,3.92507927 0.443475971,4.04952371 C0.380302756,4.17142847 0.34618922,4.31619037 0.34618922,4.48507925 C0.34618922,4.67301576 0.384093149,4.83809512 0.45484715,4.98031734 C0.525601151,5.11999987 0.621624439,5.24063479 0.744180476,5.33714272 C0.86547305,5.43238082 1.00950798,5.50603161 1.1750218,5.55301573 C1.34306256,5.6012697 1.51994756,5.62539668 1.71073067,5.62539668 C1.85729253,5.62539668 2.00511785,5.61523795 2.15799703,5.5949205 C2.30961275,5.57460304 2.45112075,5.53904748 2.58125758,5.4933332 L2.52692861,5.07936495 Z" transform="translate(40.268 .14)"/>
      <path fill-rule="nonzero" d="M1.26346431,2.53968248 C1.26346431,2.2971428 1.29252399,2.06222217 1.35190681,1.83746027 C1.41002617,1.61269837 1.50225906,1.40952377 1.62607856,1.23555552 C1.74989806,1.05904759 1.9078311,0.919365056 2.09987768,0.812698392 C2.29318772,0.706031728 2.52313822,0.652698396 2.78972919,0.652698396 C3.05884709,0.652698396 3.29006105,0.706031728 3.48084416,0.812698392 C3.6741542,0.919365056 3.83082378,1.05904759 3.95590674,1.23555552 C4.07972624,1.40952377 4.17195914,1.61269837 4.2300785,1.83746027 C4.28819785,2.06222217 4.318521,2.2971428 4.318521,2.53968248 C4.318521,2.78730152 4.28693439,3.02476183 4.22249771,3.25206341 C4.16058796,3.47936499 4.06582814,3.67999991 3.93695478,3.85650784 C3.80934488,4.03174593 3.65014838,4.17269831 3.45936527,4.27555545 C3.26858216,4.37714275 3.04621244,4.42666656 2.78972919,4.42666656 C2.53577286,4.42666656 2.31087622,4.37714275 2.12262003,4.27555545 C1.92931,4.17269831 1.77137696,4.03174593 1.64376706,3.85650784 C1.51615717,3.67999991 1.42139734,3.47936499 1.35696066,3.25206341 C1.29505091,3.02476183 1.26346431,2.78730152 1.26346431,2.53968248 M0.716384262,2.53968248 C0.716384262,2.86730152 0.763132441,3.16698405 0.8566288,3.44380944 C0.948861694,3.71936499 1.08531584,3.95809514 1.26346431,4.15873005 C1.44161277,4.35809513 1.65766517,4.51682528 1.91541189,4.63238084 C2.16936821,4.74539671 2.46122847,4.8038094 2.78972919,4.8038094 C3.12075684,4.8038094 3.41009016,4.74539671 3.66657342,4.63238084 C3.92179321,4.51682528 4.1378456,4.35809513 4.318521,4.15873005 C4.49666947,3.95809514 4.63312361,3.71936499 4.7253565,3.44380944 C4.82011633,3.16698405 4.86560104,2.86730152 4.86560104,2.53968248 C4.86560104,2.20444439 4.82011633,1.89714281 4.7253565,1.62031742 C4.63312361,1.34349203 4.49793293,1.10349204 4.31978446,0.90285712 C4.14416292,0.702222205 3.92684706,0.547301574 3.67036381,0.435555545 C3.41261709,0.323809516 3.12075684,0.269206342 2.78972919,0.269206342 C2.46122847,0.269206342 2.16936821,0.323809516 1.9116215,0.435555545 C1.65387478,0.547301574 1.43655892,0.702222205 1.25967391,0.90285712 C1.08405237,1.10349204 0.948861694,1.34349203 0.8566288,1.62031742 C0.763132441,1.89714281 0.716384262,2.20444439 0.716384262,2.53968248" transform="translate(43.124 .961)"/>
      <path fill-rule="nonzero" d="M3.79039292,2.53968248 C3.79039292,1.92888884 3.64509452,1.46412695 3.35702466,1.14412696 C3.0689548,0.822857122 2.65959236,0.662857126 2.12893736,0.662857126 C1.59701888,0.662857126 1.18765645,0.822857122 0.899586586,1.14412696 C0.611516724,1.46412695 0.466218329,1.92888884 0.466218329,2.53968248 L0.466218329,5.1238094 L0.976657909,5.1238094 L0.976657909,2.62603168 C0.976657909,2.39238089 0.998136802,2.17904756 1.03604073,1.98222217 C1.07520812,1.79047615 1.13838134,1.62158726 1.22808731,1.48444441 C1.31652981,1.34730155 1.43403199,1.24063489 1.58185731,1.16190473 C1.72589224,1.08444442 1.91035803,1.04634918 2.12893736,1.04634918 C2.34625322,1.04634918 2.52945554,1.08444442 2.67475394,1.16190473 C2.8213158,1.24063489 2.94008144,1.34730155 3.02852394,1.48444441 C3.11822991,1.62158726 3.18140312,1.79047615 3.22057052,1.98222217 C3.25847445,2.17904756 3.27868987,2.39238089 3.27868987,2.62603168 L3.27868987,5.1238094 L3.79039292,5.1238094 L3.79039292,2.53968248 Z" transform="translate(48.374 .567)"/>
      <path fill-rule="nonzero" d="M1.26346431,2.53968248 C1.58817463,2.53968248 1.83960403,2.61206343 2.02154289,2.75936501 C2.19969136,2.90412691 2.28939732,3.10222214 2.28939732,3.35492055 C2.28939732,3.59238086 2.20979907,3.78031737 2.05060257,3.91873006 C1.8901426,4.05587291 1.65387478,4.12698402 1.33674524,4.12698402 L0.659528368,4.12698402 L0.659528368,2.53968248 L1.26346431,2.53968248 Z M0.15540611,4.50920624 L1.1788122,4.50920624 C1.38854727,4.50920624 1.59322849,4.49396814 1.79159239,4.46984116 C1.99121975,4.44698402 2.16810475,4.39365068 2.32098393,4.31365069 C2.47512658,4.23365069 2.60020954,4.11936498 2.69244244,3.96952371 C2.78593879,3.8184126 2.83268697,3.61904753 2.83268697,3.36761896 C2.83268697,3.24063484 2.81120808,3.1225396 2.76572337,3.00952373 C2.72150212,2.89650786 2.65959236,2.79365072 2.58252104,2.69714279 C2.50544972,2.60444438 2.41321682,2.52571422 2.30582236,2.463492 C2.19842789,2.40126978 2.08092571,2.35428566 1.95710621,2.32634915 C2.0493391,2.27809518 2.1238835,2.21333328 2.17821246,2.12444439 C2.23506836,2.03682535 2.29192425,1.93015868 2.35636093,1.8044444 L3.13086455,0.129523806 L2.55851522,0.129523806 L1.9078311,1.65333329 C1.85097521,1.76634916 1.79538278,1.85904757 1.73726342,1.927619 C1.68040753,1.99619043 1.61976124,2.04825392 1.55532456,2.08126979 C1.49088788,2.11301582 1.42013388,2.13587296 1.34432602,2.14730153 C1.26978163,2.15746026 1.18891991,2.16126979 1.1042678,2.16126979 L0.659528368,2.16126979 L0.659528368,0.129523806 L0.15540611,0.129523806 L0.15540611,4.50920624 Z" transform="translate(53.23 1.182)"/>
      <path fill-rule="nonzero" d="M3.79039292,5.07936495 C3.5503347,5.22285701 3.2635283,5.29269828 2.92618333,5.29269828 C2.6583289,5.29269828 2.41574375,5.24825384 2.19842789,5.1517459 C1.98111203,5.05777765 1.79664624,4.926984 1.64376706,4.75682528 C1.48836095,4.58793639 1.36959531,4.38857132 1.28620666,4.15746021 C1.20408148,3.92888879 1.16238716,3.67619038 1.16238716,3.4057142 C1.16238716,3.12126976 1.20660841,2.86349199 1.29884131,2.63111105 C1.3910742,2.39999994 1.51236677,2.19936502 1.67029981,2.0355555 C1.82570592,1.87047614 2.00890825,1.74222218 2.22117025,1.65333329 C2.43090532,1.56190472 2.65580197,1.51746028 2.89586019,1.51746028 C2.97545844,1.51746028 3.06263748,1.5212698 3.14855305,1.53015869 C3.23573209,1.53904758 3.3203842,1.55047615 3.40377284,1.56698409 C3.48842495,1.58476187 3.56170588,1.60253964 3.63245988,1.62412694 C3.70195042,1.6444444 3.75754285,1.6660317 3.8017641,1.69269837 L3.83208724,1.27873013 C3.68299845,1.22031743 3.52001156,1.18349203 3.34312655,1.16190473 C3.16624155,1.14412696 3.0158893,1.13523807 2.88954287,1.13523807 C2.54967097,1.13523807 2.23759529,1.1885714 1.95963314,1.29777775 C1.67914406,1.40571425 1.44034931,1.56063488 1.24072195,1.75999996 C1.04235805,1.95809519 0.886951943,2.19809518 0.778294013,2.47999994 C0.668372618,2.76317453 0.614043653,3.07555548 0.614043653,3.42222214 C0.614043653,3.76380943 0.669636082,4.07111101 0.784611334,4.3479364 C0.898323122,4.62222211 1.05751962,4.85968242 1.25841045,5.05523797 C1.4618282,5.25079352 1.70314988,5.40190463 1.9823755,5.50857129 C2.26412804,5.61777764 2.56735947,5.66984113 2.89586019,5.66984113 C3.06769134,5.66984113 3.2281513,5.65587287 3.37976702,5.63301573 C3.5326462,5.60888875 3.67920806,5.56444431 3.82071606,5.4996824 L3.79039292,5.07936495 Z" transform="translate(56.203 .095)"/>
      <polygon fill-rule="nonzero" points="0 5.079 2.354 5.079 2.354 4.697 .504 4.697 .504 3.164 2.19 3.164 2.19 2.783 .504 2.783 .504 1.082 2.354 1.082 2.354 .701 0 .701" transform="translate(60.894 .611)"/>
      <path fill-rule="nonzero" d="M2.52692861,5.07936495 C2.45238422,5.1085713 2.38668407,5.13396813 2.32477432,5.15555543 C2.2653915,5.17587289 2.20348175,5.19238082 2.14536239,5.20888876 C2.08724303,5.22285701 2.02406982,5.23428558 1.9608966,5.24063479 C1.89519646,5.24571415 1.82065207,5.24825384 1.73473649,5.24825384 C1.63744974,5.24825384 1.53889952,5.23682527 1.44034931,5.21650781 C1.33927216,5.19619035 1.2495662,5.15809511 1.16996795,5.10603162 C1.0865793,5.0501586 1.02340609,4.97650781 0.970340587,4.88507924 C0.919802015,4.79365067 0.895796193,4.67809512 0.895796193,4.53968243 C0.895796193,4.43174592 0.918538551,4.33650783 0.962759801,4.25523799 C1.00698105,4.17142847 1.06510041,4.10031736 1.13838134,4.03174593 C1.21166227,3.96571419 1.29757784,3.90603165 1.39486459,3.85269832 C1.49088788,3.80063483 1.59322849,3.74730149 1.69935949,3.69396816 C1.82065207,3.62920626 1.9469985,3.56063483 2.07966225,3.48698404 C2.20979907,3.41206341 2.32982818,3.319365 2.43848611,3.21269833 C2.54588058,3.10730151 2.63305961,2.98412691 2.70255015,2.84571421 C2.77077722,2.70857136 2.80615422,2.54476184 2.80615422,2.35682534 C2.80615422,2.13206344 2.76572337,1.93777773 2.68359819,1.77650789 C2.60273647,1.61523805 2.49155161,1.48571425 2.34878015,1.38539679 C2.20727214,1.28507933 2.04302178,1.2101587 1.85350214,1.16190473 C1.66398249,1.11365077 1.46309167,1.08952378 1.24703927,1.08952378 C1.0903697,1.08952378 0.943807837,1.10730156 0.811144085,1.13904759 C0.677216868,1.17206346 0.544553116,1.21396822 0.415679757,1.25841267 L0.451056757,1.66095234 C0.544553116,1.62793647 0.669636082,1.58857139 0.828832585,1.54158726 C0.985502159,1.49587298 1.14975252,1.47301584 1.32158366,1.47301584 C1.41887042,1.47301584 1.52121102,1.48825393 1.63113242,1.51873012 C1.73979035,1.55047615 1.84339442,1.59999996 1.93436385,1.6660317 C2.02912368,1.73333329 2.106195,1.82222218 2.16810475,1.93142852 C2.22748757,2.03809519 2.25781072,2.16888883 2.25781072,2.31999994 C2.25781072,2.45460311 2.23380489,2.56888882 2.18452979,2.66793644 C2.13651814,2.76698406 2.070818,2.84952374 1.98742935,2.92190469 C1.90404071,2.9930158 1.81054435,3.05523802 1.70441335,3.11365072 C1.59828235,3.16825389 1.49088788,3.2241269 1.38222995,3.27873008 C1.25967391,3.33714277 1.13838134,3.40317452 1.01708877,3.47428563 C0.895796193,3.54539674 0.784611334,3.62666658 0.686061118,3.72190467 C0.586247438,3.81460308 0.504122258,3.92507927 0.443475971,4.04952371 C0.380302756,4.17142847 0.34618922,4.31619037 0.34618922,4.48507925 C0.34618922,4.67301576 0.382829685,4.83809512 0.45484715,4.98031734 C0.524337687,5.11999987 0.621624439,5.24063479 0.744180476,5.33714272 C0.86547305,5.43238082 1.00824452,5.50603161 1.1750218,5.55301573 C1.34306256,5.6012697 1.51994756,5.62539668 1.71073067,5.62539668 C1.85729253,5.62539668 2.00511785,5.61523795 2.15673357,5.5949205 C2.30961275,5.57460304 2.45112075,5.53904748 2.58125758,5.4933332 L2.52692861,5.07936495 Z" transform="translate(65.48 .14)"/>
      <path fill-rule="nonzero" d="M1.26346431,2.53968248 C1.26346431,2.2971428 1.29252399,2.06222217 1.35190681,1.83746027 C1.41002617,1.61269837 1.50225906,1.40952377 1.62607856,1.23555552 C1.7486346,1.05904759 1.9078311,0.919365056 2.09861421,0.812698392 C2.29318772,0.706031728 2.52313822,0.652698396 2.78972919,0.652698396 C3.05884709,0.652698396 3.29006105,0.706031728 3.48084416,0.812698392 C3.67289074,0.919365056 3.83082378,1.05904759 3.95590674,1.23555552 C4.07972624,1.40952377 4.17195914,1.61269837 4.2300785,1.83746027 C4.28819785,2.06222217 4.318521,2.2971428 4.318521,2.53968248 C4.318521,2.78730152 4.28567093,3.02476183 4.22249771,3.25206341 C4.16058796,3.47936499 4.06582814,3.67999991 3.93695478,3.85650784 C3.80934488,4.03174593 3.65014838,4.17269831 3.45936527,4.27555545 C3.26858216,4.37714275 3.04621244,4.42666656 2.78972919,4.42666656 C2.53577286,4.42666656 2.31087622,4.37714275 2.12135657,4.27555545 C1.92931,4.17269831 1.77011349,4.03174593 1.6425036,3.85650784 C1.51615717,3.67999991 1.42013388,3.47936499 1.35696066,3.25206341 C1.29378745,3.02476183 1.26346431,2.78730152 1.26346431,2.53968248 M0.716384262,2.53968248 C0.716384262,2.86730152 0.763132441,3.16698405 0.8566288,3.44380944 C0.948861694,3.71936499 1.08531584,3.95809514 1.26346431,4.15873005 C1.44161277,4.35809513 1.65766517,4.51682528 1.91541189,4.63238084 C2.16936821,4.74539671 2.46122847,4.8038094 2.78972919,4.8038094 C3.12075684,4.8038094 3.41009016,4.74539671 3.66657342,4.63238084 C3.92179321,4.51682528 4.1378456,4.35809513 4.318521,4.15873005 C4.49666947,3.95809514 4.63312361,3.71936499 4.72409304,3.44380944 C4.82011633,3.16698405 4.86560104,2.86730152 4.86560104,2.53968248 C4.86560104,2.20444439 4.82011633,1.89714281 4.72409304,1.62031742 C4.63312361,1.34349203 4.49793293,1.10349204 4.31978446,0.90285712 C4.14289946,0.702222205 3.9255836,0.547301574 3.67036381,0.435555545 C3.41135363,0.323809516 3.12075684,0.269206342 2.78972919,0.269206342 C2.46122847,0.269206342 2.16936821,0.323809516 1.9116215,0.435555545 C1.65387478,0.547301574 1.43655892,0.702222205 1.25967391,0.90285712 C1.08405237,1.10349204 0.948861694,1.34349203 0.8566288,1.62031742 C0.763132441,1.89714281 0.716384262,2.20444439 0.716384262,2.53968248" transform="translate(68.337 .961)"/>
      <polygon fill-rule="nonzero" points="0 5.079 2.233 5.079 2.233 4.697 .51 4.697 .51 3.164 2.153 3.164 2.153 2.783 .51 2.783 .51 .701 0 .701" transform="translate(74.194 .611)"/>
      <polygon fill-rule="nonzero" points="2.527 5.079 1.146 5.079 1.146 5.462 4.42 5.462 4.42 5.079 3.037 5.079 3.037 1.082 2.527 1.082" transform="translate(75.846 .23)"/>
      <polygon fill-rule="nonzero" points="0 5.079 .553 5.079 1.693 1.158 2.665 5.079 3.481 5.079 4.514 1.158 5.605 5.079 6.134 5.079 4.816 .701 4.089 .701 3.06 4.693 2.049 .701 1.285 .701" transform="translate(80.453 .611)"/>
      <path fill-rule="nonzero" d="M2.52692861,5.07936495 L1.53005527,2.52952375 L3.51622116,2.52952375 L2.52692861,5.07936495 Z M2.247703,5.41714272 L2.85037547,5.41714272 L4.64449479,1.03746029 L4.09741474,1.03746029 L3.64888492,2.19301582 L1.40497231,2.19301582 L0.957705944,1.03746029 L0.434631721,1.03746029 L2.247703,5.41714272 Z" transform="translate(86.086 .274)"/>
      <path fill-rule="nonzero" d="M1.26346431,2.53968248 C1.5894381,2.53968248 1.84213096,2.61206343 2.02154289,2.75936501 C2.20221829,2.90412691 2.29318772,3.10222214 2.29318772,3.35492055 C2.29318772,3.59238086 2.212326,3.78031737 2.05186603,3.91873006 C1.89140607,4.05587291 1.65387478,4.12698402 1.3380087,4.12698402 L0.662055296,4.12698402 L0.662055296,2.53968248 L1.26346431,2.53968248 Z M0.157933038,4.50920624 L1.18133913,4.50920624 C1.3910742,4.50920624 1.59575542,4.49396814 1.79411931,4.46984116 C1.99248321,4.44698402 2.16810475,4.39365068 2.32477432,4.31365069 C2.4776535,4.23365069 2.60147301,4.11936498 2.69496936,3.96952371 C2.78720226,3.8184126 2.8352139,3.61904753 2.8352139,3.36761896 C2.8352139,3.24063484 2.81373501,3.1225396 2.76698683,3.00952373 C2.72150212,2.89650786 2.66211929,2.79365072 2.58504797,2.69714279 C2.50797665,2.60444438 2.41574375,2.52571422 2.30834929,2.463492 C2.20095482,2.40126978 2.08471611,2.35428566 1.95836967,2.32634915 C2.05186603,2.27809518 2.12641043,2.21333328 2.18073939,2.12444439 C2.23506836,2.03682535 2.29445118,1.93015868 2.36015132,1.8044444 L3.13212801,0.129523806 L2.55977868,0.129523806 L1.91035803,1.65333329 C1.85223867,1.76634916 1.79538278,1.85904757 1.73979035,1.927619 C1.68293446,1.99619043 1.6210247,2.04825392 1.55658803,2.08126979 C1.49215135,2.11301582 1.42139734,2.13587296 1.34558949,2.14730153 C1.27104509,2.15746026 1.19144684,2.16126979 1.10679473,2.16126979 L0.662055296,2.16126979 L0.662055296,0.129523806 L0.157933038,0.129523806 L0.157933038,4.50920624 Z" transform="translate(91.352 1.182)"/>
      <polygon fill-rule="nonzero" points="0 5.079 2.355 5.079 2.355 4.697 .505 4.697 .505 3.164 2.191 3.164 2.191 2.783 .505 2.783 .505 1.082 2.355 1.082 2.355 .701 0 .701" transform="translate(95.341 .611)"/>
      <path fill-rule="nonzero" d="M1.26346431,1.26984124 C1.83075978,1.26984124 2.26665497,1.41714282 2.57114986,1.71301583 C2.8743813,2.00634916 3.02852394,2.46476184 3.02852394,3.08952373 C3.02852394,3.3688888 2.98430269,3.62285705 2.89712365,3.84507927 C2.81120808,4.06857133 2.69117897,4.25650783 2.54082672,4.41142846 C2.39173793,4.56253957 2.212326,4.67936496 2.00511785,4.7606348 C1.79790971,4.84317448 1.57806692,4.88507924 1.34179909,4.88507924 L0.533181937,4.88507924 L0.533181937,1.26984124 L1.26346431,1.26984124 Z M0.029059679,5.26730146 L1.26978163,5.26730146 C1.5894381,5.26730146 1.8901426,5.21777765 2.16936821,5.11746019 C2.44985729,5.01968241 2.69244244,4.87999988 2.89965058,4.6958729 C3.10559526,4.51047608 3.26984562,4.28698402 3.38987473,4.02031736 C3.50864038,3.7536507 3.56928666,3.45396817 3.56928666,3.11492056 C3.56928666,2.7466666 3.51622116,2.42412692 3.41009016,2.14603169 C3.30522262,1.86793646 3.15360691,1.63428567 2.95524301,1.44888885 C2.75561565,1.26349203 2.51429397,1.12253965 2.23127796,1.02984124 C1.9469985,0.934603151 1.62607856,0.887619025 1.26978163,0.887619025 L0.029059679,0.887619025 L0.029059679,5.26730146 Z" transform="translate(100.473 .424)"/>
      <polygon fill-rule="nonzero" points="0 5.079 2.354 5.079 2.354 4.697 .504 4.697 .504 3.164 2.19 3.164 2.19 2.783 .504 2.783 .504 1.082 2.354 1.082 2.354 .701 0 .701" transform="translate(105.064 .611)"/>
      <polygon fill-rule="nonzero" points="2.527 0 1.792 0 .191 4.378 .769 4.378 2.174 .372 3.615 4.378 4.145 4.378" transform="translate(107.849 1.312)"/>
      <polygon fill-rule="nonzero" points="0 5.079 2.354 5.079 2.354 4.697 .504 4.697 .504 3.164 2.19 3.164 2.19 2.783 .504 2.783 .504 1.082 2.354 1.082 2.354 .701 0 .701" transform="translate(112.754 .611)"/>
      <polygon fill-rule="nonzero" points="0 5.079 .505 5.079 .505 1.082 2.36 1.082 2.36 .701 0 .701" transform="translate(116.247 .611)"/>
      <path fill-rule="nonzero" d="M1.26346431,2.53968248 C1.26346431,2.2971428 1.29378745,2.06222217 1.35190681,1.83746027 C1.41002617,1.61269837 1.50352252,1.40952377 1.62607856,1.23555552 C1.75116153,1.05904759 1.9078311,0.919365056 2.10114114,0.812698392 C2.29445118,0.706031728 2.52313822,0.652698396 2.79225612,0.652698396 C3.05884709,0.652698396 3.29006105,0.706031728 3.48210763,0.812698392 C3.6741542,0.919365056 3.83208724,1.05904759 3.95590674,1.23555552 C4.07972624,1.40952377 4.17195914,1.61269837 4.23134196,1.83746027 C4.28819785,2.06222217 4.318521,2.2971428 4.318521,2.53968248 C4.318521,2.78730152 4.28819785,3.02476183 4.22502464,3.25206341 C4.16058796,3.47936499 4.06582814,3.67999991 3.93821824,3.85650784 C3.81060835,4.03174593 3.65267531,4.17269831 3.45936527,4.27555545 C3.27110909,4.37714275 3.04621244,4.42666656 2.79225612,4.42666656 C2.53577286,4.42666656 2.31340314,4.37714275 2.12262003,4.27555545 C1.93183692,4.17269831 1.77264042,4.03174593 1.64503053,3.85650784 C1.51615717,3.67999991 1.42139734,3.47936499 1.35948759,3.25206341 C1.29631438,3.02476183 1.26346431,2.78730152 1.26346431,2.53968248 M0.716384262,2.53968248 C0.716384262,2.86730152 0.763132441,3.16698405 0.8566288,3.44380944 C0.951388623,3.71936499 1.08531584,3.95809514 1.26346431,4.15873005 C1.4441397,4.35809513 1.66145556,4.51682528 1.91541189,4.63238084 C2.17189514,4.74539671 2.4637554,4.8038094 2.79225612,4.8038094 C3.12075684,4.8038094 3.41261709,4.74539671 3.66657342,4.63238084 C3.92432013,4.51682528 4.14037253,4.35809513 4.318521,4.15873005 C4.49793293,3.95809514 4.63312361,3.71936499 4.72661997,3.44380944 C4.82011633,3.16698405 4.86560104,2.86730152 4.86560104,2.53968248 C4.86560104,2.20444439 4.82011633,1.89714281 4.72661997,1.62031742 C4.63312361,1.34349203 4.49793293,1.10349204 4.32231139,0.90285712 C4.14542639,0.702222205 3.92811053,0.547301574 3.67036381,0.435555545 C3.41261709,0.323809516 3.12075684,0.269206342 2.79225612,0.269206342 C2.4637554,0.269206342 2.16936821,0.323809516 1.91414842,0.435555545 C1.65513824,0.547301574 1.43908584,0.702222205 1.26220084,0.90285712 C1.08405237,1.10349204 0.951388623,1.34349203 0.8566288,1.62031742 C0.763132441,1.89714281 0.716384262,2.20444439 0.716384262,2.53968248" transform="translate(118.529 .961)"/>
      <path fill-rule="nonzero" d="M1.26346431,2.53968248 C1.36959531,2.53968248 1.47698977,2.55746025 1.5894381,2.58793644 C1.70062296,2.61841263 1.80296356,2.67174596 1.89519646,2.74285707 C1.98869282,2.81396818 2.0670276,2.90666659 2.12893736,3.02095231 C2.18832018,3.13650786 2.21864332,3.27746024 2.21864332,3.44380944 C2.21864332,3.6088888 2.18452979,3.74603165 2.11630271,3.85904752 C2.04554871,3.97079355 1.95963314,4.06222212 1.8547656,4.13079355 C1.7486346,4.20063482 1.63365935,4.25142847 1.51236677,4.28190465 C1.39233767,4.31238084 1.27862588,4.33015862 1.17249488,4.33015862 L0.569822402,4.33015862 L0.569822402,2.53968248 L1.26346431,2.53968248 Z M0.0593828224,4.71238083 L1.15986023,4.71238083 C1.37970302,4.71238083 1.5856477,4.69079353 1.78022121,4.65015861 C1.97479471,4.60698401 2.14409893,4.5358729 2.29318772,4.43809513 C2.43722265,4.34031735 2.55346136,4.2095237 2.63937694,4.04698403 C2.72276558,3.88444435 2.7644599,3.67999991 2.7644599,3.43873007 C2.7644599,3.2025396 2.72276558,3.00571421 2.63937694,2.84190469 C2.55346136,2.67936501 2.44101304,2.54730152 2.3007685,2.44825391 C2.16052396,2.34793645 2.000064,2.27428566 1.81559821,2.22730153 C1.63365935,2.18285709 1.44793009,2.1587301 1.25714698,2.1587301 L0.569822402,2.1587301 L0.569822402,0.333968246 L0.0593828224,0.333968246 L0.0593828224,4.71238083 Z" transform="translate(124.328 .978)"/>
      <polygon fill-rule="nonzero" points="0 5.079 2.355 5.079 2.355 4.697 .505 4.697 .505 3.164 2.191 3.164 2.191 2.783 .505 2.783 .505 1.082 2.355 1.082 2.355 .701 0 .701" transform="translate(128.037 .611)"/>
      <path fill-rule="nonzero" d="M1.26346431,2.53968248 C1.5894381,2.53968248 1.83960403,2.61206343 2.02154289,2.75936501 C2.20095482,2.90412691 2.29192425,3.10222214 2.29192425,3.35492055 C2.29192425,3.59238086 2.21106254,3.78031737 2.05186603,3.91873006 C1.89140607,4.05587291 1.65387478,4.12698402 1.3380087,4.12698402 L0.660791832,4.12698402 L0.660791832,2.53968248 L1.26346431,2.53968248 Z M0.156669574,4.50920624 L1.1788122,4.50920624 C1.38981074,4.50920624 1.59449195,4.49396814 1.79159239,4.46984116 C1.99248321,4.44698402 2.16810475,4.39365068 2.32224739,4.31365069 C2.47639004,4.23365069 2.60147301,4.11936498 2.6937059,3.96952371 C2.78720226,3.8184126 2.83268697,3.61904753 2.83268697,3.36761896 C2.83268697,3.24063484 2.81120808,3.1225396 2.76698683,3.00952373 C2.72150212,2.89650786 2.66085583,2.79365072 2.58378451,2.69714279 C2.50671318,2.60444438 2.41448029,2.52571422 2.30708582,2.463492 C2.19842789,2.40126978 2.08345264,2.35428566 1.95836967,2.32634915 C2.05060257,2.27809518 2.1238835,2.21333328 2.17947593,2.12444439 C2.23506836,2.03682535 2.29318772,1.93015868 2.3576244,1.8044444 L3.13086455,0.129523806 L2.55977868,0.129523806 L1.90909457,1.65333329 C1.85223867,1.76634916 1.79538278,1.85904757 1.73726342,1.927619 C1.68040753,1.99619043 1.6210247,2.04825392 1.55658803,2.08126979 C1.49215135,2.11301582 1.42139734,2.13587296 1.34558949,2.14730153 C1.27104509,2.15746026 1.19018338,2.16126979 1.10553127,2.16126979 L0.660791832,2.16126979 L0.660791832,0.129523806 L0.156669574,0.129523806 L0.156669574,4.50920624 Z" transform="translate(131.373 1.182)"/>
      <path fill-rule="nonzero" d="M2.52692861,5.07936495 C2.45238422,5.1085713 2.38668407,5.13396813 2.32477432,5.15555543 C2.2653915,5.17587289 2.20348175,5.19238082 2.14536239,5.20888876 C2.08724303,5.22285701 2.02533328,5.23428558 1.9608966,5.24063479 C1.89645992,5.24571415 1.82065207,5.24825384 1.73473649,5.24825384 C1.63744974,5.24825384 1.53889952,5.23682527 1.44034931,5.21650781 C1.34053563,5.19619035 1.2495662,5.15809511 1.16996795,5.10603162 C1.0865793,5.0501586 1.02340609,4.97650781 0.971604051,4.88507924 C0.921065479,4.79365067 0.895796193,4.67809512 0.895796193,4.53968243 C0.895796193,4.43174592 0.918538551,4.33650783 0.962759801,4.25523799 C1.00698105,4.17142847 1.06510041,4.10031736 1.13838134,4.03174593 C1.21292573,3.96571419 1.29757784,3.90603165 1.39612806,3.85269832 C1.49088788,3.80063483 1.59322849,3.74730149 1.69935949,3.69396816 C1.82065207,3.62920626 1.9469985,3.56063483 2.07966225,3.48698404 C2.21106254,3.41206341 2.33109164,3.319365 2.43848611,3.21269833 C2.54588058,3.10730151 2.63305961,2.98412691 2.70381362,2.84571421 C2.77077722,2.70857136 2.80615422,2.54476184 2.80615422,2.35682534 C2.80615422,2.13206344 2.76698683,1.93777773 2.68359819,1.77650789 C2.60399993,1.61523805 2.49155161,1.48571425 2.34878015,1.38539679 C2.20727214,1.28507933 2.04302178,1.2101587 1.85350214,1.16190473 C1.66524596,1.11365077 1.46309167,1.08952378 1.24830273,1.08952378 C1.0903697,1.08952378 0.943807837,1.10730156 0.811144085,1.13904759 C0.677216868,1.17206346 0.544553116,1.21396822 0.415679757,1.25841267 L0.451056757,1.66095234 C0.544553116,1.62793647 0.669636082,1.58857139 0.828832585,1.54158726 C0.986765623,1.49587298 1.15101598,1.47301584 1.32158366,1.47301584 C1.41887042,1.47301584 1.52121102,1.48825393 1.63113242,1.51873012 C1.74105381,1.55047615 1.84339442,1.59999996 1.93562732,1.6660317 C2.03038714,1.73333329 2.106195,1.82222218 2.16810475,1.93142852 C2.22748757,2.03809519 2.25781072,2.16888883 2.25781072,2.31999994 C2.25781072,2.45460311 2.23506836,2.56888882 2.18579325,2.66793644 C2.13651814,2.76698406 2.070818,2.84952374 1.98742935,2.92190469 C1.90530417,2.9930158 1.81054435,3.05523802 1.70441335,3.11365072 C1.59954581,3.16825389 1.49088788,3.2241269 1.38222995,3.27873008 C1.25967391,3.33714277 1.13838134,3.40317452 1.01835223,3.47428563 C0.895796193,3.54539674 0.784611334,3.62666658 0.686061118,3.72190467 C0.586247438,3.81460308 0.504122258,3.92507927 0.443475971,4.04952371 C0.380302756,4.17142847 0.34618922,4.31619037 0.34618922,4.48507925 C0.34618922,4.67301576 0.384093149,4.83809512 0.45484715,4.98031734 C0.525601151,5.11999987 0.622887903,5.24063479 0.744180476,5.33714272 C0.86547305,5.43238082 1.00950798,5.50603161 1.1750218,5.55301573 C1.34306256,5.6012697 1.51994756,5.62539668 1.71199413,5.62539668 C1.85729253,5.62539668 2.00511785,5.61523795 2.15799703,5.5949205 C2.30961275,5.57460304 2.45112075,5.53904748 2.58125758,5.4933332 L2.52692861,5.07936495 Z" transform="translate(134.632 .14)"/>
      <polygon fill-rule="nonzero" points="0 5.079 .504 5.079 .504 1.082 2.36 1.082 2.36 .701 0 .701" transform="translate(140.121 .611)"/>
      <path fill-rule="nonzero" d="M2.52692861,5.07936495 L1.5325822,2.52952375 L3.51874809,2.52952375 L2.52692861,5.07936495 Z M2.24896646,5.41714272 L2.8529024,5.41714272 L4.64575825,1.03746029 L4.09867821,1.03746029 L3.65141184,2.19301582 L1.40749924,2.19301582 L0.960232873,1.03746029 L0.43715865,1.03746029 L2.24896646,5.41714272 Z" transform="translate(142.47 .274)"/>
      <path fill-rule="nonzero" d="M1.26346431,1.26984124 C1.41381656,1.26984124 1.55785149,1.28380949 1.69430563,1.30412695 C1.83328671,1.32825394 1.95584275,1.36888885 2.06450068,1.43111108 C2.17189514,1.49206345 2.25528379,1.57587298 2.318457,1.68507932 C2.38163022,1.79428567 2.41195336,1.93650789 2.41195336,2.11174598 C2.41195336,2.30730153 2.37657636,2.46476184 2.30329543,2.58539676 C2.23127796,2.70476184 2.13651814,2.79492057 2.02154289,2.85714279 C1.90530417,2.92063485 1.77390389,2.96253961 1.63113242,2.98412691 C1.48836095,3.00444437 1.34179909,3.01587294 1.1965007,3.01587294 L0.721438119,3.01587294 L0.721438119,1.26984124 L1.26346431,1.26984124 Z M1.13459095,3.35873007 C1.29757784,3.35873007 1.45172049,3.36507928 1.59575542,3.38285706 C1.73852689,3.39682531 1.86613678,3.43111103 1.97479471,3.48952372 C2.08345264,3.5441269 2.17189514,3.62666658 2.23759529,3.73587292 C2.3007685,3.84507927 2.33488204,3.99365069 2.33488204,4.1879364 C2.33488204,4.34158719 2.30582236,4.47238084 2.25149339,4.57396814 C2.19716443,4.67555544 2.12767389,4.75682528 2.04175832,4.81650782 C1.95836967,4.87492051 1.86234639,4.91555543 1.75621539,4.93714273 C1.65008438,4.95999988 1.5502707,4.97269829 1.45172049,4.97269829 L0.721438119,4.97269829 L0.721438119,3.35873007 L1.13459095,3.35873007 Z M0.210998539,5.3117459 L1.34937988,5.3117459 C1.5717496,5.3117459 1.77390389,5.29142844 1.95836967,5.25460304 C2.13904507,5.21523796 2.29571464,5.15682527 2.4283784,5.0717459 C2.55851522,4.98793638 2.66211929,4.88126972 2.73540022,4.74666655 C2.80994462,4.61333322 2.84532162,4.44825386 2.84532162,4.25650783 C2.84532162,3.96698403 2.76572337,3.73587292 2.61031726,3.56190467 C2.45491115,3.3841269 2.24643954,3.26222214 1.98616589,3.19111103 C2.12893736,3.17714278 2.26033764,3.13904754 2.38036675,3.07047611 C2.50039586,3.00444437 2.60273647,2.92063485 2.68738858,2.82031739 C2.77077722,2.71999993 2.84026776,2.60317454 2.88701594,2.47238089 C2.93755451,2.3403174 2.96156033,2.20063487 2.96156033,2.05460312 C2.96156033,1.82984122 2.91733908,1.6444444 2.82636965,1.49714282 C2.73666369,1.34984124 2.61916151,1.23555552 2.47007272,1.15301584 C2.32351086,1.06793648 2.15041625,1.01079363 1.95457928,0.979047595 C1.75874231,0.947301564 1.5502707,0.932063469 1.33042791,0.932063469 L0.210998539,0.932063469 L0.210998539,5.3117459 Z" transform="translate(147.685 .38)"/>
    </g>
    <g transform="matrix(1 0 0 -1 66.332 29.524)">
      <path fill="#FFF" fill-rule="nonzero" d="M20.2154289,17.7777773 L13.6934261,16.2679361 C14.9821597,15.5504758 15.9765062,14.3136504 16.3315396,12.7606346 C16.9961218,9.85777753 15.186841,6.95111094 12.2947712,6.28063476 C9.40649176,5.61269827 6.51442196,7.43111093 5.84983974,10.3352378 C5.18525751,13.2406346 6.99201147,16.1473012 9.88155434,16.8152377 L20.1661538,19.1949202 L22.460605,25.5606343 L8.61429964,22.3542852 C6.01156317,21.7536502 3.83840456,20.2653963 2.33361857,18.284444 C0.404308578,15.748571 -0.4283144,12.4038092 0.336081505,9.06031723 C0.703749619,7.46539664 1.39865499,6.03301572 2.33361857,4.81015861 C4.88328954,1.47174599 9.22581636,-0.261587295 13.5670797,0.741587283 C19.4939908,2.11428566 23.2060489,8.07746012 21.840244,14.0355552 C21.5256414,15.4158726 20.9646632,16.6717456 20.2154289,17.7777773" transform="translate(22.686 .618)"/>
      <path fill="#FFF" fill-rule="nonzero" d="M2.52692861,5.07936495 C1.34558949,4.80634909 0.608989796,3.62158721 0.879371157,2.43428565 C1.15227945,1.24825394 2.33235511,0.506666654 3.51243077,0.780952361 C4.69250643,1.05269839 5.43036959,2.2387301 5.15872476,3.42349198 C4.88707994,4.61206338 3.70826774,5.35111098 2.52692861,5.07936495" transform="translate(30.785 9.244)"/>
      <path fill="#FFF" fill-rule="nonzero" d="M20.2154289,5.07936495 C20.7801974,4.51174592 21.0644769,3.83492054 21.0644769,3.05396818 C21.0644769,2.27047613 20.7801974,1.58095234 20.2154289,0.985396801 C19.6481334,0.443174592 18.9784973,0.175238091 18.1989399,0.175238091 C17.4193824,0.175238091 16.7345847,0.443174592 16.139493,0.985396801 L6.25035792,9.77142833 L6.25035792,3.07428564 C6.25035792,2.27682534 5.9749227,1.60380948 5.42405227,1.04634918 C4.87191836,0.493968242 4.18459378,0.21587301 3.36460545,0.21587301 C2.57367679,0.21587301 1.89393299,0.493968242 1.32916445,1.04634918 C0.761868977,1.60380948 0.480116436,2.27682534 0.480116436,3.07428564 L0.480116436,24.5739676 C0.480116436,25.3409517 0.761868977,26.0101581 1.32916445,26.5777771 C1.89393299,27.1479358 2.57367679,27.4336501 3.36460545,27.4336501 C4.18459378,27.4336501 4.87191836,27.1479358 5.42405227,26.5777771 C5.9749227,26.0101581 6.25035792,25.3409517 6.25035792,24.5739676 L6.25035792,17.8768249 L16.139493,26.5777771 C16.7345847,27.1479358 17.4193824,27.4336501 18.1989399,27.4336501 C18.9784973,27.4336501 19.6481334,27.1479358 20.2154289,26.5777771 C20.7801974,26.0101581 21.0644769,25.3333327 21.0644769,24.5536502 C21.0644769,23.7701581 20.7801974,23.0958724 20.2154289,22.5257137 L10.283336,13.8247616 L20.2154289,5.07936495 Z" transform="translate(.745 .916)"/>
      <path fill="#FFF" fill-rule="nonzero" d="M13.8981074,21.587301 C14.6612398,21.587301 15.2980258,21.2952376 15.8072019,20.7111106 C16.316378,20.1282535 16.5715978,19.5085709 16.5715978,18.8571424 C16.5715978,18.1180948 16.2961626,17.4704758 15.7440287,16.9142853 C15.1918948,16.3619044 14.5765877,16.0825393 13.8981074,16.0825393 L6.59781061,16.0825393 C6.25793871,16.0825393 5.96860538,15.9834917 5.72854716,15.7866663 C5.48722548,15.5847615 5.36593291,15.3015869 5.36593291,14.9320631 C5.36593291,14.533333 5.48722548,14.2273012 5.72854716,14.0139679 C5.96860538,13.8019044 6.25793871,13.6952378 6.59781061,13.6952378 L11.3939211,13.6952378 C12.2707653,13.6952378 13.0831729,13.5098409 13.8349342,13.1428568 C14.582905,12.7707933 15.2348526,12.2793648 15.7869865,11.6673013 C16.3378569,11.0565077 16.7686983,10.4101585 17.0833009,9.72825373 C17.3928496,9.04634898 17.5482557,8.27682519 17.5482557,7.42476172 C17.5747885,6.4850792 17.4143285,5.60253954 17.0605585,4.78095226 C16.7067885,3.95301577 16.2317259,3.25714278 15.6378977,2.68952374 C15.0440695,2.11936503 14.3504276,1.67111107 13.556972,1.34476187 C12.7647799,1.01968251 11.875301,0.854603153 10.8834815,0.854603153 L3.07653559,0.854603153 C2.33867243,0.854603153 1.70188642,1.11238092 1.16491409,1.62412694 C0.62794176,2.13460312 0.357560399,2.77460311 0.357560399,3.54158721 C0.357560399,4.25269831 0.614043653,4.89777766 1.12321977,5.48444431 C1.63239588,6.06476175 2.25528379,6.37206333 2.98935655,6.39999984 L10.7988294,6.39999984 C11.5644888,6.39999984 11.946055,6.74158713 11.946055,7.42476172 C11.946055,8.19174583 11.5644888,8.57523788 10.7988294,8.57523788 L6.13285574,8.57523788 C5.28254426,8.57523788 4.48024443,8.75301565 3.73227356,9.10984104 C2.98303923,9.46539659 2.33361857,9.95682515 1.77895774,10.5803172 C1.22935077,11.2076188 0.797245977,11.8869838 0.486433758,12.6273013 C0.17309461,13.3663489 0.0189519646,14.165079 0.0189519646,15.0184123 C0.0189519646,15.8704758 0.180675396,16.6946028 0.507912651,17.4920631 C0.832622978,18.2869837 1.27736241,18.9841265 1.84465789,19.5809519 C2.40816297,20.1790471 3.07653559,20.6552376 3.83840456,21.0107931 C4.60406393,21.3663487 5.43795037,21.5568249 6.34385428,21.587301 L13.8981074,21.587301 Z" transform="translate(46.535 .278)"/>
      <path fill="#FFF" fill-rule="nonzero" d="M13.8981074,21.587301 C14.6612398,21.587301 15.2992893,21.2952376 15.8084654,20.7111106 C16.3176415,20.1282535 16.5703344,19.5085709 16.5703344,18.8571424 C16.5703344,18.1180948 16.2961626,17.4704758 15.7440287,16.9142853 C15.1931583,16.3619044 14.5778512,16.0825393 13.8981074,16.0825393 L6.59654714,16.0825393 C6.25793871,16.0825393 5.96734192,15.9834917 5.72602024,15.7866663 C5.48722548,15.5847615 5.36719637,15.3015869 5.36719637,14.9320631 C5.36719637,14.533333 5.48722548,14.2273012 5.72602024,14.0139679 C5.96734192,13.8019044 6.25793871,13.6952378 6.59654714,13.6952378 L11.3939211,13.6952378 C12.2707653,13.6952378 13.0856998,13.5098409 13.8324072,13.1428568 C14.582905,12.7707933 15.2348526,12.2793648 15.785723,11.6673013 C16.3391204,11.0565077 16.7699617,10.4101585 17.080774,9.72825373 C17.3915862,9.04634898 17.5495192,8.27682519 17.5495192,7.42476172 C17.576052,6.4850792 17.4118016,5.60253954 17.0605585,4.78095226 C16.7067885,3.95301577 16.2329894,3.25714278 15.6378977,2.68952374 C15.042806,2.11936503 14.3504276,1.67111107 13.5594989,1.34476187 C12.7660433,1.01968251 11.8740375,0.854603153 10.884745,0.854603153 L3.07527212,0.854603153 C2.33867243,0.854603153 1.70314988,1.11238092 1.16617755,1.62412694 C0.626678296,2.13460312 0.358823863,2.77460311 0.358823863,3.54158721 C0.358823863,4.25269831 0.612780188,4.89777766 1.1219563,5.48444431 C1.63239588,6.06476175 2.25275686,6.37206333 2.99062001,6.39999984 L10.8000929,6.39999984 C11.5619619,6.39999984 11.9447915,6.74158713 11.9447915,7.42476172 C11.9447915,8.19174583 11.5619619,8.57523788 10.8000929,8.57523788 L6.13032881,8.57523788 C5.28254426,8.57523788 4.48277136,8.75301565 3.73353702,9.10984104 C2.98303923,9.46539659 2.33235511,9.95682515 1.77895774,10.5803172 C1.22935077,11.2076188 0.797245977,11.8869838 0.485170294,12.6273013 C0.174358074,13.3663489 0.0189519646,14.165079 0.0189519646,15.0184123 C0.0189519646,15.8704758 0.18193886,16.6946028 0.505385722,17.4920631 C0.830096049,18.2869837 1.27862588,18.9841265 1.84465789,19.5809519 C2.40942643,20.1790471 3.07527212,20.6552376 3.83966803,21.0107931 C4.60406393,21.3663487 5.43668691,21.5568249 6.34259082,21.587301 L13.8981074,21.587301 Z" transform="translate(66.482 .278)"/>
      <path fill="#FF5200" fill-rule="nonzero" d="M16.425036,6.34920619 C17.1894319,6.34920619 17.8476968,6.0723808 18.3985672,5.51873002 C18.9519646,4.96126972 19.2273998,4.28698402 19.2273998,3.4920634 C19.2273998,2.66793644 18.9519646,1.97714281 18.3985672,1.42095235 C17.8476968,0.867301566 17.1894319,0.591746017 16.425036,0.591746017 L3.35323427,0.591746017 C2.53071901,0.591746017 1.85223867,0.867301566 1.31526634,1.42095235 C0.778294013,1.97714281 0.480116436,2.66793644 0.425787471,3.4920634 L0.425787471,24.947301 C0.425787471,25.7434914 0.71006694,26.419047 1.27357202,26.9739676 C1.84086749,27.5276184 2.53071901,27.8044437 3.35323427,27.8044437 C4.08857049,27.8044437 4.7468354,27.5276184 5.32802898,26.9739676 C5.9079591,26.419047 6.19602896,25.7434914 6.19602896,24.947301 L6.19602896,6.34920619 L16.425036,6.34920619 Z" transform="translate(86.28 .585)"/>
      <path fill="#FF5200" fill-rule="nonzero" d="M11.3711788,6.34920619 C12.0218629,6.34920619 12.6384335,6.46984111 13.2183636,6.71111094 C13.7970302,6.95492046 14.299889,7.28761887 14.7231496,7.71301568 C15.148937,8.14095218 15.4900724,8.64507915 15.7427653,9.22920612 C15.9967216,9.81333309 16.1255949,10.445714 16.1255949,11.1276188 C16.1255949,11.7511108 15.9967216,12.3580949 15.7427653,12.9396822 C15.4900724,13.5212695 15.1400928,14.036825 14.7041976,14.4749203 C14.2657755,14.916825 13.7553359,15.2673012 13.1754058,15.5225393 C12.5942122,15.7765075 11.9915397,15.9047615 11.3711788,15.9047615 C10.7495543,15.9047615 10.1544626,15.7765075 9.58843062,15.5225393 C9.02366207,15.2673012 8.51827635,14.916825 8.08238117,14.4749203 C7.64395905,14.036825 7.29776983,13.5212695 7.04128658,12.9396822 C6.78859372,12.3580949 6.65972036,11.7511108 6.65972036,11.1276188 C6.65972036,10.4723807 6.79364757,9.85396801 7.06402894,9.27238072 C7.33314683,8.68825375 7.68565337,8.18412678 8.12533895,7.75746012 C8.5624976,7.33079347 9.0653564,6.98920617 9.63012494,6.73396809 C10.1974204,6.47873 10.778614,6.34920619 11.3711788,6.34920619 M12.6005295,21.4057138 C13.875365,21.2660312 15.0706022,20.8965074 16.1887682,20.299682 C17.3069341,19.7028567 18.2696939,18.9396821 19.0770476,18.0177773 C19.8818743,17.0920631 20.5186603,16.0393647 20.9836152,14.8584123 C21.451097,13.6799997 21.6848379,12.4342854 21.6848379,11.1276188 L21.6848379,3.57587293 C21.6848379,2.81015866 21.4005584,2.15492058 20.8357899,1.61396821 C20.2697579,1.07555553 19.6329719,0.803809504 18.9254318,0.803809504 C17.9336124,0.803809504 17.1439472,1.25968251 16.5501189,2.16888883 C16.4073475,2.11301582 16.2797376,2.04698408 16.1672893,1.97714281 C16.0535775,1.9060317 15.9411292,1.8412698 15.8274174,1.78539678 C15.148937,1.47301584 14.4552951,1.23047616 13.7477551,1.06158728 C13.0111554,0.888888867 12.2353883,0.803809504 11.4141365,0.803809504 C9.29025304,0.803809504 7.39505658,1.38031743 5.7272837,2.53206343 C4.05698389,3.68253959 2.81247155,5.16825384 1.99121975,6.98920617 C1.70820374,7.64444425 1.48962442,8.3111109 1.33421831,8.99555533 C1.1788122,9.67746008 1.09921395,10.3873013 1.09921395,11.1276188 C1.09921395,11.8679362 1.1788122,12.5765076 1.33421831,13.2584124 C1.48962442,13.9428568 1.70820374,14.6095234 1.99121975,15.2673012 C2.81247155,17.1149202 4.05698389,18.6057138 5.7272837,19.7434916 C7.39505658,20.8799995 9.29025304,21.4501582 11.4141365,21.4501582 L12.0294437,21.4501582 C12.212646,21.4501582 12.4021656,21.4361899 12.6005295,21.4057138" transform="translate(105.636 .329)"/>
      <path fill="#FF5200" fill-rule="nonzero" d="M6.31732153,11.4285711 C6.31732153,10.7733331 6.44872182,10.1549204 6.70141468,9.57333309 C6.95537101,8.98920612 7.30156023,8.48634899 7.74250927,8.05968234 C8.17966792,7.63174584 8.67999978,7.29015855 9.24729526,7.03492046 C9.8120638,6.77968237 10.4197901,6.65015856 11.0742646,6.65015856 C11.6958891,6.65015856 12.2972981,6.77968237 12.8759647,7.03492046 C13.4558949,7.29015855 13.9663344,7.63174584 14.4047566,8.05968234 C14.8406517,8.48634899 15.1906314,8.98920612 15.4445877,9.57333309 C15.6998075,10.1549204 15.8248904,10.7733331 15.8248904,11.4285711 C15.8248904,12.0838092 15.6998075,12.7022219 15.4445877,13.2838092 C15.1906314,13.8666663 14.8406517,14.3707933 14.4047566,14.7974599 C13.9663344,15.2253964 13.4558949,15.5682536 12.8759647,15.8234917 C12.2972981,16.0774599 11.6958891,16.2069837 11.0742646,16.2069837 C10.4197901,16.2069837 9.8120638,16.0698409 9.24729526,15.8006345 C8.67999978,15.5301583 8.17966792,15.1758726 7.74250927,14.7365076 C7.30156023,14.293333 6.95537101,13.781587 6.70141468,13.1999997 C6.44872182,12.6158727 6.31732153,12.0266664 6.31732153,11.4285711 M3.51748463,28.322539 C3.88515274,28.3492056 4.24018621,28.2844437 4.57753118,28.1295231 C4.91993001,27.970793 5.22189798,27.7650787 5.49101587,27.5111104 C5.76139724,27.2558723 5.96481499,26.9485708 6.10632299,26.5930152 C6.24783099,26.2361898 6.31732153,25.8755549 6.31732153,25.5060311 L6.31732153,20.6019042 C7.30914101,21.1136503 8.33507403,21.4476185 9.39512058,21.603809 C10.4564306,21.7574598 11.5101598,21.7574598 12.5575717,21.603809 C13.6037202,21.4476185 14.6220724,21.1339677 15.6126284,20.6641265 C16.6057114,20.1955551 17.5242499,19.5619043 18.3732979,18.7657138 C19.363854,17.7434916 20.1055075,16.6399996 20.602049,15.4615869 C21.0960635,14.2793647 21.3437025,12.9358727 21.3437025,11.4285711 C21.3437025,10.006349 21.0670038,8.67047597 20.5161334,7.41841251 C19.9665264,6.16507921 19.222346,5.07301575 18.2873824,4.13333323 C17.3536822,3.1961904 16.2633125,2.4571428 15.0188002,1.91619043 C13.7742879,1.3765079 12.4577581,1.10476188 11.0742646,1.10476188 C9.71477705,1.10476188 8.41214535,1.38285711 7.16889647,1.93523805 C5.92312067,2.49269835 4.82517019,3.239365 3.87757196,4.17650783 C2.92997373,5.11492051 2.17442207,6.21206334 1.6071266,7.46158712 C1.04235805,8.71238073 0.759342048,10.0342855 0.759342048,11.4285711 L0.759342048,25.7193644 C0.759342048,26.058412 0.843994156,26.39492 1.01329837,26.7212692 C1.18386605,27.0476184 1.39486459,27.3320628 1.65134785,27.5733326 C1.90404071,27.8171422 2.1946375,28.0063485 2.52061129,28.1511104 C2.84658508,28.2933326 3.18013966,28.3492056 3.51748463,28.322539" transform="translate(129.109 .027)"/>
    </g>
    <g transform="matrix(1 0 0 -1 0 40)">
      <path fill="#FFF" fill-rule="nonzero" d="M2.52692861,0 L0.769449762,2.31746026 L2.52692861,0 Z" transform="translate(27.18 7.128)"/>
      <path fill="#FFF" fill-rule="nonzero" d="M0,0 L1.75747885,2.31746026 L0,0 Z" transform="translate(30.83 7.128)"/>
      <path fill="#FFF" fill-rule="nonzero" d="M20.2154289,13.9682536 L20.1206691,14.060952 L19.3133154,14.6857139 L18.406148,13.4946028 L19.1452746,12.9155552 C20.6576414,11.1885711 20.9570824,8.89777756 19.8692397,7.32952363 C19.1414842,6.28063476 17.894445,5.6812697 16.4477783,5.6812697 C15.62779,5.6812697 14.7762151,5.87682525 13.9878133,6.25142842 L13.4394698,6.51174587 L11.681991,4.19428561 L11.1222763,3.45396817 L10.5587712,4.19428561 L8.80255582,6.51174587 L8.25294885,6.25142842 C7.46454712,5.87682525 6.61549911,5.6812697 5.79298384,5.6812697 C4.34505375,5.6812697 3.09927794,6.28063476 2.37278597,7.32952363 C1.28367974,8.89777756 1.58312078,11.1885711 3.09548755,12.9155552 L3.83461417,13.4946028 L2.92997373,14.6857139 L2.1238835,14.060952 L2.02406982,13.9682536 C0.0101077144,11.7104759 -0.353770006,8.62857121 1.14469866,6.46984111 C2.15420664,5.00952368 3.84977574,4.17523799 5.79298384,4.17523799 C6.63950493,4.17523799 7.50497798,4.34031735 8.33002017,4.65142846 L11.1222763,0.97396823 L13.9120055,4.65142846 C14.7357842,4.34031735 15.6025207,4.17523799 16.4477783,4.17523799 C18.3922499,4.17523799 20.0852921,5.00952368 21.097327,6.46984111 C22.5957957,8.62857121 22.2331814,11.7104759 20.2154289,13.9682536" transform="translate(19.148 2.934)"/>
      <path fill="#FF5200" fill-rule="nonzero" d="M17.6885003,12.6984124 C17.6885003,12.6984124 15.1931583,13.900952 12.2505499,13.900952 C9.30541461,13.900952 6.81133607,12.6984124 6.81133607,12.6984124 L0.224896646,16.2082536 L12.2505499,0.360634912 L24.2749397,16.2082536 L17.6885003,12.6984124 Z" transform="translate(18.02 7.836)"/>
      <path fill="#FFF" fill-rule="nonzero" d="M1.26346431,34.2857134 C1.26346431,34.2857134 8.39066646,25.5441263 20.7195512,17.9034916 C20.7195512,17.9034916 12.4400696,10.8825394 22.6059034,0.135873012 C22.6059034,0.135873012 12.7142413,5.22666654 14.582905,16.4939678 C14.582905,16.4939678 -2.36520518,24.4292057 1.26346431,34.2857134" transform="translate(.011 .786)"/>
      <path fill="#FFF" fill-rule="nonzero" d="M16.425036,-5.63922792e-17 C16.425036,-5.63922792e-17 10.637106,4.66158719 11.5063694,12.213333 C11.5063694,12.213333 2.65074811,16.604444 0.523074223,21.9047614 C0.523074223,21.9047614 -0.133927216,11.9073013 9.37490515,7.51492045 C9.37490515,7.51492045 11.2865266,2.33904756 16.425036,-1.18423786e-15" transform="translate(1.055 3.263)"/>
      <path fill="#FFF" fill-rule="nonzero" d="M2.34005557e-16,8.88888867 C2.34005557e-16,8.88888867 3.00578158,4.79238083 6.52326621,4.08888879 C6.52326621,4.08888879 7.64901291,2.12063487 9.34205508,0.67682538 C9.34205508,0.67682538 7.37484115,1.55682536 6.28447146,2.59809517 C4.58890236,2.76317453 -0.00631732153,4.35555545 2.34005557e-16,8.88888867" transform="translate(3 5.326)"/>
      <path fill="#FFF" fill-rule="nonzero" d="M21.4788932,34.2857134 C21.4788932,34.2857134 14.3516911,25.5441263 2.02406982,17.9034916 C2.02406982,17.9034916 10.302288,10.8825394 0.136454145,0.135873012 C0.136454145,0.135873012 10.0281162,5.22666654 8.15692556,16.4939678 C8.15692556,16.4939678 25.1075627,24.4292057 21.4788932,34.2857134" transform="translate(37.784 .786)"/>
      <path fill="#FFF" fill-rule="nonzero" d="M0,0 C0,0 5.79045691,4.66158719 4.91866654,12.213333 C4.91866654,12.213333 13.7755513,16.604444 15.9032252,21.9047614 C15.9032252,21.9047614 16.5551728,11.9073013 7.05013083,7.51492045 C7.05013083,7.51492045 5.1359824,2.33904756 0,0" transform="translate(43.058 3.263)"/>
      <path fill="#FFF" fill-rule="nonzero" d="M10.1077144,8.88888867 C10.1077144,8.88888867 7.10319633,4.79238083 3.58318477,4.08888879 C3.58318477,4.08888879 2.45617461,2.12063487 0.763132441,0.67682538 C0.763132441,0.67682538 2.73034637,1.55682536 3.82324299,2.59809517 C5.51628516,2.76317453 10.1115048,4.35555545 10.1077144,8.88888867" transform="translate(47.43 5.326)"/>
    </g>
  </g>
</svg>
