<svg width="172px" height="88px" viewBox="0 0 172 88" version="1.1" xmlns="http://www.w3.org/2000/svg" xmlns:xlink="http://www.w3.org/1999/xlink">
<g id="Welcome" stroke="none" stroke-width="1" fill="none" fill-rule="evenodd">
    <g id="Desktop-Grey" transform="translate(-336.000000, -223.000000)" stroke="#FFFFFF">
        <g id="메인-정보" transform="translate(0.000000, -1.000000)">
            <path d="M336,311 C341.473069,310.162856 346.932148,309.403425 352.377237,308.721708 C352.673744,305.19389 354.986575,291.448212 360.865739,284.341674 C365.171044,279.137563 369.149837,276.503087 372.802117,276.438243 L372.802117,249.495131 C371.866131,249.495131 371.031743,249.356612 370.298954,249.079574 C370.038828,248.985802 369.788055,248.814649 369.546635,248.566113 L369.546635,244.766162 C369.72523,244.628836 369.877122,244.530051 370.002312,244.469808 C370.127501,244.409564 370.368056,244.323392 370.723976,244.211291 L370.723976,241.653647 C371.223687,241.47266 371.759066,241.347812 372.330115,241.279103 C372.904569,241.23055 373.55,241.23055 374.266408,241.279103 L375.192118,229.648649 L376.246181,241.279103 C377.22334,241.232489 378.034667,241.232489 378.680162,241.279103 C379.170891,241.328376 379.606648,241.453224 379.987432,241.653647 L379.987432,244.211291 C380.385904,244.322243 380.65221,244.408415 380.786352,244.469808 C380.920494,244.5312 381.034227,244.629985 381.127551,244.766162 L381.127551,248.566113 C381.127551,248.679114 380.886234,248.850268 380.403601,249.079574 C379.310133,249.356612 378.416768,249.495131 377.723507,249.495131 L377.723507,276.438243 C382.232329,278.391236 385.376649,280.294818 387.156465,282.148988 C395.870283,291.226836 400.501173,301.243069 401.262892,304.674232 C402.031571,304.643698 402.799963,304.614761 403.568068,304.587422 C403.568068,301.555819 403.568068,297.576381 403.568068,292.64911 C400.551116,291.133103 398.674953,290.150975 397.939576,289.702727 C397.2042,289.254479 396.274115,288.526061 395.149321,287.517472 C399.491568,287.33409 402.161606,287.112758 403.159433,286.853476 C403.879739,286.764539 404.810617,286.461203 405.952067,285.943467 C402.227762,282.653475 400.037935,280.586051 399.382586,279.741195 C398.869492,279.213115 398.388489,278.508979 397.939576,277.628788 C402.67127,277.815222 405.3421,277.908438 405.952067,277.908438 C406.562034,277.908438 407.648819,277.815222 409.212421,277.628788 C409.895763,276.949574 410.368307,276.409447 410.630052,276.008407 C410.891796,275.607366 411.249872,274.874834 411.704279,273.810811 C417.659564,274.275635 422.148398,274.508046 425.170784,274.508046 C428.193169,274.508046 432.604216,274.275635 438.403924,273.810811 C439.074302,275.126034 439.536271,275.977327 439.789832,276.364688 C440.043393,276.752048 440.414489,277.173415 440.903119,277.628788 L452.562193,277.628788 C451.790658,278.973366 450.985087,280.03584 450.145479,280.816207 C448.603863,282.509901 446.75777,284.218988 444.607201,285.943467 C446.255222,286.413864 447.434003,286.7172 448.143546,286.853476 C450.238732,287.146727 452.290431,287.368059 454.298643,287.517472 C454.281378,287.791479 453.702562,288.353169 452.562193,289.202541 C451.421824,290.051912 449.610561,291.200769 447.128403,292.64911 L447.128403,304.763592 L447.128403,304.763592 C448.763037,304.835932 450.39633,304.91572 452.028282,305.002955 C452.044197,304.724364 452.066052,304.407407 452.093847,304.052086 C452.248031,303.994114 452.381768,303.95252 452.495058,303.927303 C452.608349,303.902086 452.790263,303.873421 453.040799,303.841308 C452.954376,302.936867 453.03838,302.259451 453.29281,301.80906 C453.547241,301.358668 453.928046,301.025957 454.435224,300.810926 C454.064665,300.706855 453.786693,300.362044 453.601308,299.776493 C453.415923,299.190941 453.229087,298.097902 453.040799,296.497375 C453.12308,296.348542 453.343556,296.23269 453.702226,296.14982 C454.060897,296.06695 455.217848,295.864551 457.17308,295.542621 C457.301746,295.143042 457.389916,294.807184 457.437587,294.535046 C457.485259,294.262907 457.531058,293.833994 457.574985,293.248304 C456.91057,293.482048 456.500418,293.338531 456.344528,292.817753 C456.014824,289.027255 456.386818,287.92782 456.014824,283.565142 C455.838801,282.600564 455.501902,283.678441 455.293313,281.483899 C455.154253,280.020871 455.04532,276.590878 454.966512,271.193921 C454.710447,271.163873 454.533351,270.940549 454.435224,270.523947 C454.214334,269.586142 454.072413,268.45506 454.009462,267.1307 C453.976054,266.818786 454.047667,266.43808 454.2243,265.988581 C454.560988,265.661101 454.917326,265.442774 455.293313,265.3336 C455.853168,264.55174 456.3513,264.041317 456.78771,263.802332 C457.224119,263.563348 458.112713,263.314378 459.453489,263.055423 L459.453489,262.042999 C459.040617,261.732805 458.757785,261.230144 458.604994,260.535016 C458.452203,259.839889 458.305781,258.600759 458.165726,256.817628 L455.293313,257.15153 L451.578338,253.130287 C451.623821,252.572422 451.623821,252.025743 451.578338,251.490249 C451.578338,251.327955 451.447398,251.07839 451.18552,250.741553 C451.502169,250.754073 451.804944,250.875454 452.093847,251.105694 C452.38275,251.335934 452.539776,251.580991 452.564925,251.840865 L459.649014,251.105694 C459.86917,250.520407 459.999436,250.096851 460.039812,249.835028 C460.080188,249.573205 460.080188,249.152032 460.039812,248.571508 C459.775409,247.954484 459.726349,247.401 459.892632,246.911056 C460.058914,246.421112 460.37608,246.090399 460.844128,245.918919 C461.342471,246.102308 461.642385,246.43302 461.743871,246.911056 C461.845357,247.389092 461.784727,247.918951 461.561979,248.500632 C461.651116,249.01439 461.711747,249.39667 461.743871,249.647472 C461.775995,249.898274 461.868646,250.262967 462.021822,250.741553 L466.404031,250.451797 C466.417962,249.839989 466.487471,249.394595 466.612558,249.115614 C466.737645,248.836633 466.949159,248.655264 467.247099,248.571508 C467.406363,248.751356 467.505451,248.964346 467.544363,249.210477 C467.583275,249.456608 467.583275,249.870381 467.544363,250.451797 L469.618013,253.639497 C469.745018,253.377188 469.879533,253.207451 470.02156,253.130287 C470.163586,253.053122 470.341482,253.053122 470.555246,253.130287 C470.421319,253.212965 470.313901,253.303298 470.232989,253.401287 C470.092036,253.560094 470.02156,253.797495 470.02156,254.113493 L470.02156,255.505878 L464.013678,255.943192 C464.250563,256.595048 464.376096,257.293133 464.390275,258.037449 C464.411544,259.153922 464.061492,261.02759 464.087773,261.475671 C464.105294,261.774392 464.105294,262.200243 464.087773,262.753226 C464.798177,262.753226 465.311666,262.753226 465.628243,262.753226 C466.544017,262.872842 467.825343,262.940847 468.386168,264.310076 C468.760051,265.222894 468.812582,267.684163 468.543762,271.693881 C468.521714,272.087835 468.398433,272.739903 468.173918,273.650085 C467.949403,274.560267 467.833211,276.086644 467.825343,278.229214 C467.806811,281.536783 467.858038,284.044919 467.979024,285.753623 C468.121605,287.767315 468.543762,289.527917 468.734427,291.913525 C468.661973,292.119539 468.545887,292.26833 468.386168,292.359897 C468.499427,293.29283 468.579287,293.880422 468.625746,294.122676 C468.672205,294.364929 468.783621,294.774705 468.959994,295.352002 C470.47553,295.85489 471.377145,296.166592 471.664841,296.287107 C471.952537,296.407622 472.130621,296.548204 472.199095,296.708854 C472.132826,297.596793 472.027216,298.330051 471.882266,298.908628 C471.737316,299.487204 471.344562,299.930345 470.704004,300.238048 L471.882266,302.162908 L472.156752,306.462813 C473.554264,306.591006 474.950775,306.724735 476.34629,306.864001 C475.781748,291.833298 476.151683,275.525251 477.456093,257.939861 C477.671264,253.037519 478.475673,242.549545 479.869318,226.475936 L480.491442,225.826883 C480.683906,226.334966 480.820192,226.658979 480.9003,226.79892 C480.980408,226.938862 481.109051,227.077658 481.286227,227.215307 L481.286227,230.534621 L482.314647,230.534621 L482.314647,225 C482.557739,225.22353 482.762326,225.386775 482.928407,225.489735 C483.094489,225.592695 483.334507,225.705078 483.648463,225.826883 C484.084974,233.91153 484.597296,240.248445 485.185426,244.837629 C485.700313,250.563372 486.326886,255.647139 486.871311,261.343603 C487.601857,268.987487 488.156679,284.614413 488.535777,308.224382 C495.045722,309.028099 501.533797,309.953305 508,311" id="Combined-Shape"></path>
        </g>
    </g>
</g>
</svg>