<svg xmlns="http://www.w3.org/2000/svg" width="348" height="41" viewBox="0 0 348 41">
  <g fill="none" fill-rule="evenodd" stroke="#FFF" transform="translate(1 1)">
    <path fill="#FFF" d="M7.30419958,22.0444214 L20.8996076,38.5170879 L27.8839152,38.5170879 L16.1012283,24.4053247 C22.4990673,23.2785299 25.7513022,18.2347818 25.7513022,12.9227493 C25.7513022,6.96683401 21.6993375,0.95726183 13.595408,0.95726183 L0,0.95726183 L0,38.5170879 L5.33153254,38.5170879 L5.33153254,6.43026506 L13.595408,6.43026506 C18.1272106,6.43026506 20.3664543,9.70333563 20.3664543,12.9227493 C20.3664543,16.1958199 18.1272106,19.4688904 13.595408,19.4688904 L7.30419958,19.4688904 L7.30419958,22.0444214 Z M38.8195222,22.4200196 L55.7204804,22.4200196 L55.7204804,16.9470164 L38.8195222,16.9470164 L38.8195222,6.37660817 L56.0936877,6.37660817 L56.0936877,0.95726183 L33.381359,0.95726183 L33.381359,38.4634311 L56.147003,38.4634311 L56.147003,33.0440847 L38.8195222,33.0440847 L38.8195222,22.4200196 Z M78.1688242,9.5726183 L73.4770755,22.8258712 L82.7539421,22.8258712 L78.1688242,9.5726183 Z M89.2464595,39 L84.7679722,27.9466797 L71.3858255,27.9466797 C69.9463117,31.380721 68.0802753,35.8879001 66.9073381,39 L61.0959677,39 L76.0775741,0.95726183 L80.0229082,0.95726183 L95.0045146,39 L89.2464595,39 Z M98.2392912,20.0054594 C98.2392912,25.2101781 100.371904,29.9319848 103.570824,33.3660261 C106.823059,36.8000673 111.408177,38.9463431 116.473133,38.9463431 C125.163531,38.9463431 131.987892,33.1513985 134.120505,24.6199523 L128.842288,24.6199523 C126.922936,30.3075831 122.124557,33.5806537 116.473133,33.5806537 C112.901006,33.5806537 109.648771,32.0246037 107.302897,29.5563866 C104.957022,27.0881694 103.464193,23.761442 103.464193,20.0054594 C103.464193,16.142163 104.957022,12.8154355 107.302897,10.3472184 C109.648771,7.87900121 112.901006,6.32295128 116.473133,6.32295128 C121.964611,6.32295128 126.549729,9.16676668 128.522396,14.8007406 L133.853929,14.8007406 C131.721316,6.32295128 125.003585,0.95726183 116.473133,0.95726183 C111.408177,0.95726183 106.823059,3.1571945 103.570824,6.53757885 C100.371904,9.9716201 98.2392912,14.6934268 98.2392912,20.0054594 Z M154.975098,38.6780586 L154.975098,6.43026506 L166.224631,6.43026506 L166.224631,0.95726183 L138.287401,0.95726183 L138.287401,6.43026506 L149.59025,6.43026506 L149.59025,38.6780586 L154.975098,38.6780586 Z M209.597635,8.76983252 L210.397365,8.60886184 L210.34405,8.17960668 C208.531329,-1.53229121 193.176515,-2.44445842 187.738352,4.63825165 C186.352154,6.46258606 185.765685,8.66251874 185.978946,10.9161083 C186.938622,24.9205578 207.998176,14.7257478 210.397365,25.8863819 C211.94351,33.3446902 204.905887,37.5835848 198.401417,37.5835848 C193.336461,37.5835848 187.098568,34.7397694 186.5121,29.1057955 L186.458784,28.7301973 L185.605739,28.8375111 L185.659054,29.2131093 C186.298838,35.2763384 192.909939,38.3884383 198.348102,38.3884383 C205.43904,38.3884383 212.956501,33.6666316 211.250411,25.7254112 C208.691275,13.7062668 187.738352,24.0083905 186.778676,10.8624514 C186.61873,8.76983252 187.098568,6.78452743 188.431451,5.1211637 C190.670695,2.17003451 194.669344,0.882269039 198.188156,0.828612144 C201.547021,0.77495525 205.225779,1.79443624 207.518338,4.26265339 C208.584644,5.44310507 209.224428,6.78452743 209.54432,8.34057737 L209.597635,8.76983252 Z M219.582617,19.6621821 L238.882765,19.6621821 L238.882765,18.8036718 L219.582617,18.8036718 L219.582617,1.31152419 L239.309287,1.31152419 L239.309287,0.506670778 L218.729572,0.506670778 L218.729572,38.01284 L239.415918,38.01284 L239.415918,37.2079866 L219.582617,37.2079866 L219.582617,19.6621821 Z M303.705931,38.4420952 C309.837194,38.4420952 316.768186,34.7934263 316.768186,27.871687 L316.768186,0.506670778 L315.915141,0.506670778 L315.915141,27.8180301 C315.915141,34.3641712 309.410671,37.5835848 303.705931,37.5835848 C298.001192,37.5835848 291.496722,34.3641712 291.496722,27.871687 L291.496722,0.506670778 L290.643677,0.506670778 L290.643677,27.8180301 C290.643677,34.7934263 297.521354,38.4420952 303.705931,38.4420952 Z M325.953438,0.506670778 L325.100392,0.506670778 L325.100392,38.01284 L346,38.01284 L346,37.1543297 L325.953438,37.1543297 L325.953438,0.506670778 Z" />
    <g transform="translate(243, 1)" stroke-width="1.7">
        <path d="M21.0006474,11 C26.260521,11 31.1474642,11.7545094 34.8314475,13.0215158 C39.2703561,14.5486532 42,16.8639489 42,18.9605274 C42,21.1451104 39.107199,23.6053547 34.3406814,25.1829653 C30.7369817,26.3762032 25.9937722,27 21.0006474,27 C15.8806228,27 11.0338215,26.4150287 7.38868506,25.1700235 C2.77755511,23.5950012 0,21.1036965 0,18.9605274 C0,16.8807733 2.60662864,14.5835962 6.98338215,13.0590472 C10.6816094,11.7713338 15.688978,11 21.0006474,11 L21.0006474,11 Z"></path>
        <path d="M12.98026,14.9177704 C15.6270776,10.2559377 18.7461219,6.31080044 21.7073225,3.69439815 C25.2751126,0.541467789 28.6707095,-0.693209141 30.5009141,0.378522228 C32.4080838,1.49529546 33.1007699,5.31722995 32.0793514,10.3499957 C31.3070912,14.1547083 29.4651462,18.6761164 26.9513869,23.1021417 C24.375012,27.639447 21.4242474,31.6362499 18.5034861,34.2301312 C14.8078556,37.5115634 11.233543,38.6985489 9.36289914,37.6029718 C7.54704399,36.539189 6.85305338,33.0550685 7.72315064,28.3958853 C8.45888505,24.4560471 10.306048,19.624645 12.98026,14.9177704 Z"></path>
        <path d="M13.1940934,23.0866219 C10.4361618,18.4252199 8.55778684,13.7081356 7.77445297,9.79314119 C6.83119973,5.07605687 7.49798219,1.46864078 9.39804117,0.393442528 C11.3780598,-0.728157623 15.1239678,0.572421276 19.0541897,3.98627516 C22.0262505,6.56754643 25.0769158,10.4493966 27.6952567,14.8748119 C30.3800048,19.4115917 32.3925494,24.0067053 33.1745281,27.873972 C34.165215,32.7687093 33.3629077,36.5087022 31.420836,37.6077643 C29.5356847,38.675008 26.0879315,37.5454532 22.409786,34.4497838 C19.3035555,31.8340425 15.9791299,27.7931001 13.1940934,23.0866219 Z"></path>
    </g>
  </g>
</svg>